<svg width="671" height="778" viewBox="0 0 671 778" fill="none" xmlns="http://www.w3.org/2000/svg">
<mask id="mask0_217_412" style="mask-type:alpha" maskUnits="userSpaceOnUse" x="0" y="0" width="671" height="778">
<rect width="671" height="778" fill="url(#paint0_radial_217_412)"/>
</mask>
<g mask="url(#mask0_217_412)">
<path d="M362.383 -87.4816C362.914 -87.6587 382.929 -89.2302 382.929 -89.2302L382.043 -81.0086L378.929 -68.7712L389.569 -62.878L392.493 -53.0268H395.681V-47.2914L390.38 -46.0032L383.991 -47.6359L382.043 -43.7393L392.139 -23.5476L404.321 -22.3335L422.71 -23.4155L438.934 -9.62271L459.538 21.5472L468.655 31.7075L475.121 34.2L476.822 23.634L498.311 11.6349L510.89 3.08487L519.376 6.97186L519.024 18.5813L517.173 26.4132L519.16 36.5703L533.677 53.9667L555.031 61.9854L554.152 57.5831L561.533 49.4292L571.491 40.4991L575.201 32.8378L586.446 25.1669L589.515 13.7636L578.125 10.7397L571.227 3.38757L566.921 -16.2599L581.912 -26.9161L583.258 -37.0087H580.411L573.069 -42.3835C573.069 -42.3835 571.555 -47.4588 572.087 -47.9902C572.618 -48.5215 575.452 -55.2521 575.452 -55.2521L586.684 -58.2986L592.752 -64.9647L603.26 -69.776C603.26 -69.776 601.843 -80.049 602.02 -82.5286C602.197 -85.0083 603.656 -98.9557 603.656 -98.9557L605.788 -104.083L603.44 -105.78L595.273 -102.897L586.717 -103.571L567.552 -95.9898L529.046 -113.612L519.272 -106.582L516.554 -105.934L515.054 -114.942L511.164 -120.944L498.971 -119.032H488.666L488.489 -123.27L496.907 -128.873L498.974 -144.791L495.992 -152.308C495.992 -152.308 489.552 -150.369 490.476 -150.9C491.4 -151.432 495.751 -159.048 495.751 -159.048L493.803 -173.217L490.476 -175.166L485.301 -171.8L484.045 -167.55L481.594 -167.875L479.134 -173.395L457.738 -183.581L436.277 -180.479L433.15 -177.629L426.677 -175.552V-180.125L419.786 -186.501L363.172 -195L359.365 -194.292L358.666 -184.196L374.594 -154.72L380.9 -149.934L387.134 -137.4L383.65 -128.944L379.563 -124.683L380.095 -119.193C380.095 -119.193 387.179 -119.015 388.065 -119.37C388.951 -119.724 393.266 -127.614 393.266 -127.614L396.75 -129.153L399.401 -121.002L392.67 -115.244L382.152 -108.366L366.431 -105.039L366.456 -100.073L358.663 -93.5616C358.663 -93.5487 361.851 -87.3044 362.383 -87.4816Z" fill="#071943" fill-opacity="0.05"/>
<path d="M383.389 -89.1806L383.449 -89.7357L382.892 -89.692L382.898 -89.6231C382.892 -89.692 382.892 -89.692 382.892 -89.692L382.891 -89.6919L382.889 -89.6917L382.878 -89.6908L382.835 -89.6875L382.667 -89.6743L382.031 -89.6241C381.483 -89.5808 380.699 -89.5187 379.756 -89.4436C377.871 -89.2935 375.353 -89.0915 372.817 -88.8839C370.282 -88.6764 367.729 -88.4633 365.776 -88.2909C364.8 -88.2047 363.973 -88.1286 363.372 -88.0684C363.072 -88.0384 362.826 -88.012 362.645 -87.9902C362.57 -87.9811 362.504 -87.9725 362.449 -87.9645C362.438 -87.975 362.427 -87.987 362.415 -88.0008C362.3 -88.1294 362.146 -88.3367 361.963 -88.6119C361.599 -89.1573 361.158 -89.9091 360.728 -90.6768C360.299 -91.4423 359.886 -92.2145 359.58 -92.7968C359.443 -93.0559 359.328 -93.2771 359.243 -93.4427L366.753 -99.7178L366.921 -99.8576L366.92 -100.076L366.896 -104.664L382.248 -107.913L382.333 -107.93L382.406 -107.978L392.924 -114.857L392.949 -114.873L392.971 -114.892L399.702 -120.65L399.937 -120.851L399.841 -121.146L397.191 -129.296L397.032 -129.784L396.563 -129.577L393.079 -128.037L392.935 -127.974L392.86 -127.836L393.266 -127.614L392.86 -127.836L392.859 -127.836L392.859 -127.835L392.857 -127.831L392.847 -127.814L392.811 -127.748C392.78 -127.691 392.733 -127.606 392.673 -127.498C392.554 -127.283 392.383 -126.974 392.174 -126.602C391.757 -125.859 391.191 -124.864 390.599 -123.86C390.005 -122.854 389.388 -121.843 388.867 -121.065C388.605 -120.675 388.373 -120.351 388.183 -120.118C388.088 -120 388.01 -119.913 387.948 -119.854C387.91 -119.817 387.887 -119.801 387.88 -119.795C387.825 -119.777 387.681 -119.748 387.42 -119.721C387.155 -119.693 386.817 -119.672 386.427 -119.655C385.647 -119.622 384.686 -119.611 383.748 -119.611C382.81 -119.611 381.9 -119.622 381.223 -119.633C380.942 -119.638 380.701 -119.643 380.516 -119.646L380.045 -124.516L383.984 -128.623L384.045 -128.686L384.078 -128.767L387.563 -137.224L387.643 -137.418L387.549 -137.607L381.314 -150.14L381.266 -150.238L381.18 -150.303L374.954 -155.028L359.138 -184.298L359.802 -193.902L363.18 -194.53L419.576 -186.065L426.214 -179.923V-175.552V-174.917L426.819 -175.111L433.292 -177.188L433.388 -177.219L433.462 -177.287L436.484 -180.041L457.665 -183.102L478.78 -173.05L481.171 -167.686L481.277 -167.45L481.533 -167.416L483.984 -167.09L484.377 -167.038L484.489 -167.418L485.697 -171.505L490.489 -174.622L493.374 -172.931L495.271 -159.141C495.241 -159.091 495.205 -159.027 495.161 -158.951C495.041 -158.742 494.867 -158.444 494.657 -158.083C494.235 -157.362 493.664 -156.397 493.065 -155.415C492.464 -154.432 491.839 -153.438 491.307 -152.658C491.041 -152.268 490.803 -151.938 490.606 -151.692C490.508 -151.569 490.424 -151.473 490.355 -151.402C490.321 -151.367 490.294 -151.342 490.273 -151.324C490.25 -151.305 490.242 -151.3 490.245 -151.302C490.208 -151.28 490.163 -151.253 490.121 -151.219C490.101 -151.203 490.071 -151.177 490.041 -151.142C490.015 -151.112 489.961 -151.042 489.935 -150.937C489.904 -150.805 489.927 -150.65 490.03 -150.524C490.114 -150.423 490.215 -150.385 490.258 -150.371C490.346 -150.343 490.428 -150.344 490.459 -150.345C490.601 -150.349 490.823 -150.393 491.05 -150.444C491.536 -150.554 492.265 -150.749 493.012 -150.959C493.763 -151.169 494.541 -151.395 495.131 -151.569C495.359 -151.636 495.559 -151.695 495.718 -151.742L498.5 -144.732L496.475 -129.142L488.232 -123.655L488.015 -123.511L488.026 -123.25L488.203 -119.012L488.222 -118.568H488.666H498.971H499.007L499.043 -118.574L510.938 -120.44L514.613 -114.771L516.098 -105.858L516.179 -105.369L516.662 -105.484L519.38 -106.131L519.469 -106.152L519.543 -106.206L529.098 -113.078L567.359 -95.5686L567.539 -95.4865L567.723 -95.5591L586.787 -103.1L595.237 -102.436L595.335 -102.428L595.427 -102.461L603.365 -105.262L605.219 -103.922L603.228 -99.1336L603.202 -99.0711L603.195 -99.0039L603.195 -99.0033L603.195 -99.0014L603.194 -98.9938L603.191 -98.9638L603.179 -98.8466L603.132 -98.3996L603.058 -97.686C603.03 -97.4184 602.999 -97.1162 602.964 -96.7854C602.825 -95.439 602.637 -93.6178 602.443 -91.719C602.057 -87.9266 601.647 -83.8104 601.558 -82.5616C601.511 -81.9008 601.57 -80.7593 601.677 -79.4519C601.786 -78.1329 601.947 -76.6107 602.113 -75.1693C602.28 -73.7274 602.451 -72.3635 602.582 -71.3602C602.647 -70.8586 602.702 -70.4469 602.74 -70.1605C602.745 -70.1228 602.75 -70.0873 602.754 -70.0541L592.559 -65.3859L592.473 -65.3465L592.409 -65.2765L586.433 -58.7102L575.331 -55.6991L575.113 -55.64L575.025 -55.4318L575.025 -55.4316L575.024 -55.4307L575.023 -55.4271L575.017 -55.4128L574.993 -55.3567L574.903 -55.1428C574.824 -54.9581 574.712 -54.6937 574.575 -54.3746C574.301 -53.7363 573.931 -52.8803 573.545 -52.008C573.158 -51.135 572.756 -50.2492 572.419 -49.5503C572.251 -49.2003 572.1 -48.9018 571.977 -48.6769C571.916 -48.5642 571.863 -48.4745 571.821 -48.408C571.785 -48.3514 571.765 -48.3258 571.76 -48.319C571.758 -48.3169 571.758 -48.3166 571.759 -48.3177C571.645 -48.2041 571.592 -48.0659 571.563 -47.9616C571.533 -47.8516 571.519 -47.7338 571.514 -47.6198C571.502 -47.3917 571.521 -47.1199 571.556 -46.8339C571.626 -46.2583 571.77 -45.5549 571.927 -44.8822C572.085 -44.2066 572.26 -43.5492 572.394 -43.0616C572.461 -42.8176 572.519 -42.6155 572.56 -42.4742C572.58 -42.4035 572.596 -42.3481 572.607 -42.3101L572.62 -42.2666L572.624 -42.2553L572.625 -42.2523L572.625 -42.2515L572.625 -42.2513C572.625 -42.2512 572.625 -42.2512 572.691 -42.2708L572.625 -42.2511L572.669 -42.1018L572.795 -42.0098L580.138 -36.635L580.26 -36.5456H580.411H582.729L581.479 -27.177L566.653 -16.6374L566.403 -16.4599L566.469 -16.1607L570.774 3.48672L570.802 3.6114L570.889 3.70448L577.787 11.0566L577.878 11.1533L578.006 11.1873L588.947 14.092L586.043 24.8809L574.94 32.4552L574.838 32.5248L574.784 32.636L571.114 40.2152L561.224 49.0844L561.206 49.1004L561.19 49.1183L553.809 57.2723L553.652 57.4452L553.698 57.6738L554.414 61.2588L533.954 53.576L519.592 36.3647L517.647 26.4224L519.475 18.6879L519.486 18.6422L519.487 18.5953L519.839 6.98586L519.848 6.67873L519.568 6.55077L511.083 2.66377L510.845 2.55505L510.629 2.70181L498.068 11.2405L476.596 23.2296L476.4 23.339L476.364 23.5604L474.755 33.5624L468.925 31.3154L459.905 21.2633L439.32 -9.87811L439.284 -9.933L439.234 -9.9756L423.01 -23.7684L422.868 -23.8888L422.683 -23.8779L404.331 -22.798L392.439 -23.9831L382.561 -43.7393L384.238 -47.0947L390.266 -45.5545L390.378 -45.5259L390.49 -45.5531L395.791 -46.8413L396.144 -46.9273V-47.2914V-53.0268V-53.49H395.681H392.839L390.013 -63.0098L389.959 -63.1914L389.793 -63.2831L379.466 -69.0033L382.492 -80.8944L382.5 -80.9263L382.503 -80.959L383.389 -89.1806ZM362.515 -87.9026C362.514 -87.9031 362.513 -87.9038 362.512 -87.9048C362.523 -87.8986 362.525 -87.896 362.515 -87.9026Z" stroke="black" stroke-opacity="0.2" stroke-width="0.926342"/>
<mask id="path-4-inside-1_217_412" fill="white">
<path d="M605.784 -43.4777L588.507 -37.9515L586.655 -24.0524L572.601 -14.0628L575.889 0.937653L580.832 6.20618L595.743 10.164L590.858 28.3011L579.18 36.2683L575.625 43.6108L565.024 53.1205L559.633 59.0911L560.56 63.7348L575.615 66.0857L587.357 72.768H596.883L602.006 83.6206L606.486 91.2142L620.324 100.054L624.781 106.875L638.458 100.83L649.04 100.328L650.618 89.7747L650.988 89.2691C655.265 83.4209 656.811 82.8735 657.316 82.6932C657.999 82.4549 659.406 81.9492 669.377 85.0633L674.558 86.0198L687.742 77.5889L701.464 64.8877L723.128 65.6252L743.757 81.0669L765.823 82.6255L776.995 91.6297L790.176 90.9792L794.52 94.3766L806.96 85.5464L809.997 81.2279L818.644 83.1408L824.357 82.6255L832.743 77.5309L837.937 75.3604L848.506 57.7868L865.104 43.3692L871.297 42.5512C870.614 36.5936 871.381 35.6693 872.662 34.977C873.674 34.4263 874.917 34.5841 875.825 35.3795C876.578 35.9077 881.28 37.7529 885.154 39.1119L887.077 39.785L885.56 52.4635L894.445 52.937L910.692 51.7454L917.39 53.5617L921.258 66.9649L911.912 73.1351L908.251 79.7916L911.854 82.9057L928.623 68.9744L931.653 67.6251L929.975 54.7758L916.997 11.2751L920.024 6.20618L915.712 -1.84149L905.938 4.49939L889.157 -2.87204L884.314 -11.6121C884.314 -11.6121 891.633 -15.512 892.889 -16.7937C894.145 -18.0786 909.429 -19.473 909.429 -19.473L913.986 -26.5579L902.203 -43.3875L894.471 -34.3189L889.846 -40.3539L883.979 -37.8034L886.033 -25.7012L880.198 -26.487L876.585 -35.182L867.365 -43.3875L869.155 -48.1923L868.914 -62.8643L856.799 -67.3245L840.185 -59.6246L820.341 -79.1432L824.975 -83.2267L832.037 -87.8994L847.199 -99.4219L857.372 -95.2483L865.12 -98.0307L857.372 -111.869L838.388 -119.617L828.344 -135.065H819.723L811.942 -131.432L810.326 -125.897L817.893 -120.786L809.881 -115.15C809.881 -115.15 814.432 -102.098 815.707 -102.256C816.982 -102.414 803.92 -96.1146 803.92 -96.1146L796.736 -113.437H788.401L784.379 -105.943L778.933 -100.336L771.446 -108.333L760.896 -107.84L739.542 -95.5446L737.983 -88.1925L732.464 -83.6421L731.172 -91.6351H722.583L708.214 -77.1531L711.663 -69.6818L706.604 -66.3358L699.88 -72.2098L659.216 -62.5197L655.555 -50.6462L644.367 -34.5604L638.957 -24.9509L635.215 -29.4304L619.348 -31.6235L620.127 -40.7983L605.784 -43.4777Z"/>
</mask>
<path d="M605.784 -43.4777L588.507 -37.9515L586.655 -24.0524L572.601 -14.0628L575.889 0.937653L580.832 6.20618L595.743 10.164L590.858 28.3011L579.18 36.2683L575.625 43.6108L565.024 53.1205L559.633 59.0911L560.56 63.7348L575.615 66.0857L587.357 72.768H596.883L602.006 83.6206L606.486 91.2142L620.324 100.054L624.781 106.875L638.458 100.83L649.04 100.328L650.618 89.7747L650.988 89.2691C655.265 83.4209 656.811 82.8735 657.316 82.6932C657.999 82.4549 659.406 81.9492 669.377 85.0633L674.558 86.0198L687.742 77.5889L701.464 64.8877L723.128 65.6252L743.757 81.0669L765.823 82.6255L776.995 91.6297L790.176 90.9792L794.52 94.3766L806.96 85.5464L809.997 81.2279L818.644 83.1408L824.357 82.6255L832.743 77.5309L837.937 75.3604L848.506 57.7868L865.104 43.3692L871.297 42.5512C870.614 36.5936 871.381 35.6693 872.662 34.977C873.674 34.4263 874.917 34.5841 875.825 35.3795C876.578 35.9077 881.28 37.7529 885.154 39.1119L887.077 39.785L885.56 52.4635L894.445 52.937L910.692 51.7454L917.39 53.5617L921.258 66.9649L911.912 73.1351L908.251 79.7916L911.854 82.9057L928.623 68.9744L931.653 67.6251L929.975 54.7758L916.997 11.2751L920.024 6.20618L915.712 -1.84149L905.938 4.49939L889.157 -2.87204L884.314 -11.6121C884.314 -11.6121 891.633 -15.512 892.889 -16.7937C894.145 -18.0786 909.429 -19.473 909.429 -19.473L913.986 -26.5579L902.203 -43.3875L894.471 -34.3189L889.846 -40.3539L883.979 -37.8034L886.033 -25.7012L880.198 -26.487L876.585 -35.182L867.365 -43.3875L869.155 -48.1923L868.914 -62.8643L856.799 -67.3245L840.185 -59.6246L820.341 -79.1432L824.975 -83.2267L832.037 -87.8994L847.199 -99.4219L857.372 -95.2483L865.12 -98.0307L857.372 -111.869L838.388 -119.617L828.344 -135.065H819.723L811.942 -131.432L810.326 -125.897L817.893 -120.786L809.881 -115.15C809.881 -115.15 814.432 -102.098 815.707 -102.256C816.982 -102.414 803.92 -96.1146 803.92 -96.1146L796.736 -113.437H788.401L784.379 -105.943L778.933 -100.336L771.446 -108.333L760.896 -107.84L739.542 -95.5446L737.983 -88.1925L732.464 -83.6421L731.172 -91.6351H722.583L708.214 -77.1531L711.663 -69.6818L706.604 -66.3358L699.88 -72.2098L659.216 -62.5197L655.555 -50.6462L644.367 -34.5604L638.957 -24.9509L635.215 -29.4304L619.348 -31.6235L620.127 -40.7983L605.784 -43.4777Z" fill="#071943" fill-opacity="0.05" stroke="black" stroke-opacity="0.2" stroke-width="1.85268" mask="url(#path-4-inside-1_217_412)"/>
<path d="M708.014 381.307L710.661 366.084L714.603 358.178L732.382 350.549L752.294 346.372L759.292 340.263L773.555 337.845L779.258 342.221H793.92L802.738 338.498L808.776 324.802L806.106 312.227L797.55 311.695L788.642 302.015L771.462 294.07L757.469 291.085L749.103 291.578L741.39 286.106L727.687 281.189L717.45 269.67L713.843 256.669L719.701 229.843L721.604 225.364V215.677L710.822 206.38L706.787 194.484L710.632 190.384L715.044 179.928L711.779 165.465L716.883 156.854L714.403 151.26L706.79 147.093L689.468 145.949L680.132 143.112L672.593 134.105L667.518 127.204L653.587 124.292L646.698 129.088L642.444 139.953L621.206 148.413L610.794 144.851L596.821 144.864L587.363 153.527H578.89L574.733 161.945L588.844 184.433L595.285 188.916L599.481 226.546L603.932 246.786L600.756 268.265L592.174 277.369L578.417 282.319L560.148 284.999L557.211 291.339L563.69 305.026L557.085 316.523C557.697 320.564 558.702 325.163 559.359 326.116C560.798 327.826 564.679 337.143 566.904 342.65L575.335 341.197L588.513 346.041L596.332 377.22L626.912 381.02L639.43 386.92L647.072 405.382L636.316 411.746L636.947 414.766L642.898 415.572L643.442 424.885H665.177L682.183 436.027L690.743 434.771L706.52 448.947H719.488L719.978 439.798L720 433.937L715.083 426.46L704.868 405.93L707.863 401.985C708.094 397.689 708.223 392.787 708.033 391.821C707.605 389.648 707.921 382.94 707.988 381.619L708.014 381.307Z" fill="#071943" fill-opacity="0.05"/>
<path d="M707.558 381.227L707.554 381.248L707.552 381.269L707.527 381.581L707.526 381.588L707.526 381.596C707.492 382.258 707.396 384.271 707.362 386.393C707.328 388.493 707.353 390.766 707.579 391.911C707.617 392.105 707.645 392.551 707.656 393.221C707.667 393.875 707.662 394.706 707.643 395.645C707.607 397.481 707.52 399.715 707.408 401.818L704.499 405.65L704.325 405.879L704.453 406.136L714.668 426.666L714.68 426.691L714.696 426.714L719.537 434.075L719.515 439.785L719.049 448.484H706.697L691.053 434.427L690.891 434.282L690.676 434.313L682.29 435.543L665.43 424.497L665.315 424.422H665.177H643.879L643.361 415.545L643.338 415.164L642.96 415.113L637.333 414.351L636.837 411.976L647.308 405.781L647.653 405.576L647.5 405.205L639.858 386.743L639.789 386.577L639.627 386.501L627.11 380.601L627.043 380.57L626.969 380.561L596.704 376.8L588.962 345.928L588.902 345.69L588.672 345.606L575.495 340.762L575.378 340.72L575.256 340.741L567.193 342.13C566.094 339.415 564.632 335.876 563.26 332.772C562.545 331.153 561.852 329.649 561.246 328.439C560.657 327.263 560.128 326.32 559.729 325.838C559.611 325.657 559.446 325.259 559.254 324.645C559.063 324.032 558.86 323.254 558.656 322.373C558.26 320.659 557.869 318.578 557.567 316.613L564.092 305.257L564.212 305.047L564.109 304.828L557.722 291.337L560.463 285.42L578.484 282.777L578.53 282.771L578.573 282.755L592.331 277.805L592.435 277.768L592.511 277.687L601.093 268.583L601.193 268.477L601.215 268.333L604.39 246.853L604.402 246.769L604.384 246.686L599.939 226.47L595.745 188.864L595.722 188.655L595.55 188.535L589.186 184.107L575.263 161.918L579.178 153.99H587.363H587.543L587.676 153.869L597.001 145.327L610.717 145.315L621.056 148.851L621.218 148.907L621.377 148.843L642.615 140.383L642.802 140.309L642.875 140.122L647.078 129.387L653.687 124.787L667.25 127.621L672.22 134.379L672.229 134.391L672.238 134.402L679.777 143.41L679.865 143.515L679.997 143.555L689.333 146.393L689.384 146.408L689.437 146.412L706.658 147.548L714.043 151.591L716.363 156.823L711.38 165.229L711.286 165.387L711.327 165.567L714.56 179.885L710.238 190.128L706.449 194.167L706.259 194.369L706.348 194.632L710.384 206.528L710.424 206.648L710.52 206.73L721.141 215.889V225.269L719.274 229.662L719.257 229.702L719.248 229.744L713.39 256.57L713.366 256.682L713.397 256.793L717.003 269.793L717.032 269.897L717.103 269.977L727.341 281.496L727.42 281.585L727.531 281.625L741.174 286.521L748.835 291.955L748.967 292.05L749.13 292.04L757.434 291.551L771.314 294.512L788.364 302.397L797.209 312.009L797.335 312.146L797.521 312.158L805.726 312.667L808.292 324.752L802.388 338.143L793.827 341.758H779.415L773.837 337.477L773.677 337.354L773.477 337.388L759.214 339.807L759.086 339.828L758.987 339.914L752.081 345.944L732.287 350.096L732.242 350.105L732.2 350.123L714.42 357.753L714.264 357.82L714.188 357.972L710.247 365.878L710.216 365.938L710.205 366.005L707.558 381.227Z" stroke="black" stroke-opacity="0.2" stroke-width="0.926342"/>
<mask id="path-7-inside-2_217_412" fill="white">
<path d="M954.644 325.081L950.709 310.251L960.824 304.915L963.954 282.775L958.344 264.515L965.159 259.421V245.625L949.636 242.363L947.469 216.783L954.789 211.421L952.895 195.422L920.875 157.39L908.805 155.091L906.219 172.039H898.503L896.449 159.979L902.197 157.393L906.796 132.1L922.041 118.897L934.961 93.0147L932.333 72.8907L931.322 73.3415L911.781 89.5754L901.817 80.9544L908.065 69.5994L915.339 64.7979L913.298 57.7259L910.193 56.8854L894.491 58.0383L879.87 57.259L881.545 43.2343C879.732 42.5773 877.861 41.8689 876.27 41.1958C876.363 42.1909 876.495 43.3083 876.653 44.3839L877.023 46.9312L867.279 48.2226L852.439 61.1138L841.426 79.4248L834.875 82.1621L825.987 87.5981L818.313 88.2873L812.201 86.9379L810.61 89.2018L794.37 100.731L788.534 96.1643L775.311 96.818L763.873 87.6013L741.906 86.0491L721.357 70.6686L703.378 70.0567L690.664 81.7692L675.602 91.4013L668.002 89.9811C664.637 88.9281 660.492 87.8171 658.966 87.6271C658.232 88.3001 656.776 90.023 655.453 91.791L653.443 105.223L639.641 105.874L628.736 110.695L632.118 113.335L643.721 111.165L654.126 119.229L670.456 122.642L676.633 131.041L683.051 138.702L690.381 140.931L708.238 142.109L718.343 147.639L722.581 157.2L717.171 166.326L720.353 180.409L714.955 193.207L712.572 195.748L715.184 203.451L726.681 213.363V226.412L724.468 231.623L719.071 256.535L722.027 267.195L730.622 276.866L743.758 281.58L750.582 286.42L757.854 285.992L773.334 289.357L791.693 297.846L799.902 306.77L810.269 307.414L814.081 325.368L806.568 342.406L799.619 345.34L808.536 351.665L816.252 361.661V381.634L821.511 384.091L825.111 375.151L840.35 374.707L855.489 385.038L873.568 386.236L892.372 379.576C893.383 376.629 895.901 369.403 897.019 367.139C898.507 364.125 906.725 360.17 911.491 358.08L912.254 357.745L928.617 361.449L946.641 351.849L955.307 355.91L964.969 360.218L965.149 360.109V340.545L954.644 325.081Z"/>
</mask>
<path d="M954.644 325.081L950.709 310.251L960.824 304.915L963.954 282.775L958.344 264.515L965.159 259.421V245.625L949.636 242.363L947.469 216.783L954.789 211.421L952.895 195.422L920.875 157.39L908.805 155.091L906.219 172.039H898.503L896.449 159.979L902.197 157.393L906.796 132.1L922.041 118.897L934.961 93.0147L932.333 72.8907L931.322 73.3415L911.781 89.5754L901.817 80.9544L908.065 69.5994L915.339 64.7979L913.298 57.7259L910.193 56.8854L894.491 58.0383L879.87 57.259L881.545 43.2343C879.732 42.5773 877.861 41.8689 876.27 41.1958C876.363 42.1909 876.495 43.3083 876.653 44.3839L877.023 46.9312L867.279 48.2226L852.439 61.1138L841.426 79.4248L834.875 82.1621L825.987 87.5981L818.313 88.2873L812.201 86.9379L810.61 89.2018L794.37 100.731L788.534 96.1643L775.311 96.818L763.873 87.6013L741.906 86.0491L721.357 70.6686L703.378 70.0567L690.664 81.7692L675.602 91.4013L668.002 89.9811C664.637 88.9281 660.492 87.8171 658.966 87.6271C658.232 88.3001 656.776 90.023 655.453 91.791L653.443 105.223L639.641 105.874L628.736 110.695L632.118 113.335L643.721 111.165L654.126 119.229L670.456 122.642L676.633 131.041L683.051 138.702L690.381 140.931L708.238 142.109L718.343 147.639L722.581 157.2L717.171 166.326L720.353 180.409L714.955 193.207L712.572 195.748L715.184 203.451L726.681 213.363V226.412L724.468 231.623L719.071 256.535L722.027 267.195L730.622 276.866L743.758 281.58L750.582 286.42L757.854 285.992L773.334 289.357L791.693 297.846L799.902 306.77L810.269 307.414L814.081 325.368L806.568 342.406L799.619 345.34L808.536 351.665L816.252 361.661V381.634L821.511 384.091L825.111 375.151L840.35 374.707L855.489 385.038L873.568 386.236L892.372 379.576C893.383 376.629 895.901 369.403 897.019 367.139C898.507 364.125 906.725 360.17 911.491 358.08L912.254 357.745L928.617 361.449L946.641 351.849L955.307 355.91L964.969 360.218L965.149 360.109V340.545L954.644 325.081Z" fill="#071943" fill-opacity="0.05" stroke="black" stroke-opacity="0.2" stroke-width="1.85268" mask="url(#path-7-inside-2_217_412)"/>
<path d="M732.017 466.564L754.988 457.963L755.098 452.9L749.565 449.525L735.808 437.417L725.061 436.061L725.045 439.945L724.295 454.024H704.57L689.115 440.141L681.01 441.33L663.658 429.959H638.649L638.069 420.037L632.704 419.312L630.598 409.223L640.691 403.249L635.483 390.667L625.478 385.949L592.25 381.82L584.238 349.868L574.857 346.419L566.719 347.823L560.581 355.752L548.356 361.893L540.293 356.367C538.827 356.222 537.278 356.183 536.673 356.283C535.723 356.879 532.905 359.645 530.57 362.154L528.76 370.465L513.071 374.323L506.601 383.563L496.795 385.369L491.652 390.731L493.752 396.409L499.645 400.711H504.099L511.58 411.47H523.75L522.426 425.373L514.884 425.988L516.056 436.37L520.941 443.787L513.129 450.302L503.117 448.662L501.999 452.675L504.437 462.323L495.587 474.38L490.725 501.312L491.472 501.145L496.479 492.321L503.133 497.106L509.229 504.6L504.038 511.141L506.82 513.868L520.677 513.656L548.031 540.011L556.623 551.003L563.843 564.026L572.896 561.24L563.476 550.246L566.538 542.623L583.523 537.873L602.523 542.923L613.073 544.481L614.574 555.028L618.56 554.236L618.316 540.256L618.596 531.648V525.848L619.919 525.127C634.137 517.375 634.269 517.414 635.519 517.772C635.802 517.852 636.163 517.952 641.683 520.934L642.894 521.584L644.101 535.938L649.308 537.892L682.469 535.799L688.536 530.164L678.298 521.014L684.472 511.26L691.814 503.441L697.913 511.518L700.361 507.495H709.832L720.665 500.617L719.657 496.881L714.64 483.822L717.893 474.448L732.017 466.564Z" fill="#071943" fill-opacity="0.05"/>
<path d="M731.822 466.143L731.855 466.131L754.532 457.639L754.629 453.157L749.324 449.921L749.289 449.9L749.259 449.873L735.608 437.859L725.522 436.586L725.508 439.947L725.508 439.958L725.508 439.97L724.757 454.049L724.734 454.488H724.295H704.57H704.392L704.26 454.369L688.968 440.631L681.077 441.788L680.903 441.813L680.756 441.717L663.52 430.422H638.649H638.212L638.187 429.986L637.629 420.445L632.642 419.771L632.318 419.727L632.251 419.407L630.145 409.317L630.077 408.993L630.362 408.824L640.109 403.055L635.124 391.009L625.347 386.4L592.193 382.28L591.878 382.241L591.801 381.933L583.848 350.218L574.813 346.896L566.975 348.249L560.947 356.035L560.883 356.118L560.789 356.165L548.564 362.307L548.32 362.429L548.094 362.275L540.129 356.816C539.445 356.751 538.749 356.71 538.149 356.696C537.574 356.682 537.114 356.694 536.84 356.727C536.387 357.036 535.522 357.808 534.463 358.834C533.382 359.881 532.135 361.155 530.996 362.376L529.213 370.564L529.152 370.846L528.871 370.915L513.35 374.732L506.98 383.828L506.872 383.984L506.685 384.018L497.026 385.798L492.187 390.843L494.138 396.117L499.796 400.248H504.099H504.341L504.479 400.447L511.822 411.007H523.75H524.259L524.211 411.514L522.887 425.417L522.85 425.803L522.464 425.834L515.398 426.411L516.504 436.208L521.328 443.532L521.556 443.878L521.238 444.143L513.425 450.657L513.263 450.793L513.054 450.759L503.451 449.187L502.478 452.681L504.886 462.21L504.939 462.421L504.81 462.597L496.024 474.568L491.359 500.405L496.077 492.092L496.331 491.644L496.75 491.945L503.403 496.73L503.453 496.766L503.492 496.814L509.588 504.308L509.823 504.597L509.592 504.888L504.66 511.102L507.006 513.402L520.67 513.193L520.861 513.19L520.999 513.322L548.352 539.678L548.376 539.7L548.396 539.726L556.988 550.717L557.01 550.746L557.028 550.778L564.066 563.472L572.084 561.005L563.124 550.547L562.941 550.334L563.046 550.073L566.109 542.45L566.194 542.239L566.414 542.177L583.398 537.427L583.52 537.393L583.642 537.425L602.617 542.468L613.141 544.023L613.483 544.074L613.531 544.416L614.963 554.478L618.091 553.857L617.852 540.264L617.852 540.253L617.853 540.241L618.133 531.641V525.848V525.573L618.374 525.442L619.698 524.72C626.799 520.848 630.404 518.911 632.387 517.988C633.374 517.529 634.001 517.301 634.479 517.223C634.991 517.139 635.316 517.232 635.639 517.324L635.645 517.326L731.822 466.143ZM731.822 466.143L731.791 466.16L717.667 474.043L717.513 474.129L717.455 474.296L714.202 483.671L714.147 483.83L714.208 483.988L719.216 497.025L720.129 500.408L709.697 507.032H700.361H700.101L699.965 507.255L697.872 510.694M731.822 466.143L697.872 510.694M697.872 510.694L692.184 503.162L691.853 502.723L691.476 503.124L684.134 510.943L684.104 510.975L684.08 511.012L677.907 520.767L677.697 521.098L677.99 521.36L687.848 530.17L682.274 535.347L649.378 537.424L644.538 535.607L643.355 521.546L643.334 521.295L643.113 521.176L641.903 520.526C641.903 520.526 641.902 520.526 641.902 520.526C636.415 517.562 635.992 517.424 635.646 517.326L697.872 510.694Z" stroke="black" stroke-opacity="0.2" stroke-width="0.926342"/>
<mask id="path-10-inside-3_217_412" fill="white">
<path d="M842.127 753.176L794.131 704.61L779.472 698.575L761.077 686.505L754.466 670.123L747.568 654.027L733.839 639.497L740.67 635.607L739.752 627.852L745.687 621.054L746.576 615.666L736.358 600.572L722.246 592.744L716.955 583.298L720.356 572.719L723.219 570.452L712.765 564.202L690.432 546.19L689.994 535.756L684.59 540.773L648.535 543.05L639.302 539.582L638.053 524.768C636.787 524.092 635.547 523.432 634.739 523.019C632.82 523.963 628.16 526.44 623.661 528.884V531.75L623.384 540.313L623.696 558.411L610.287 561.071L608.564 548.969L601.34 547.884L583.538 543.153L570.299 546.853L569.317 549.298L581.774 563.831L561.385 570.105L552.265 553.655L544.131 543.298L518.648 518.778L504.762 518.991L504.72 518.949L496.237 536.262L485.401 543.462L477.495 538.922L474.448 544.135L475.092 552.273L471.318 557.368L452.981 569.873L449.336 568.327L448.096 571.293L450.489 574.964L452.605 586.329L443.884 591.51L433.804 589.691L425.766 582.129L415.59 582.796L412.34 587.408L403.552 587.456L399.446 589.749L398 599.783L404.528 613.47L410.521 634.132L409.194 657.251L409.664 665.086L412.55 664.874L433.298 651.077L425.328 636.779L436.699 631.404L452.241 633.117L464.227 631.011L470.349 644.679L466.12 648.987L468.059 650.456L477.037 642.495L488.702 651.422L479.237 666.062L487.095 667.653L493.638 661.263L501.776 673.688L500.733 679.285L509.634 686.225L515.347 699.47L510.326 706.39L512.713 719.381L523.069 732.253L520.252 739.003L531.964 749.701L544.247 754.664L542.482 782.256L540.192 786.954L547.486 795.195L543.129 806.856L536.128 804.637L529.729 806.785L525.349 804.006L522.767 805.201L528.373 816.521L526.322 829.048L510.049 836.242H507.122L499.686 850.209L506.678 863.303L506.745 863.715L512.091 896.028L508.536 918.426L512.842 929.578L508.159 936.863L513.933 956.285L499.068 959.347L489.98 953.663L478.863 954.984L476.055 961.128L476.133 961.341L478.825 968.155L490.779 969.311L493.194 973.014L503.367 982.73L501.979 987.59L504.291 992.678L516.091 991.986L517.015 1000.31L513.315 1004.25L515.167 1007.39H524.19C524.19 1007.39 529.893 1003.81 531.13 1002.86C532.37 1001.9 545.474 986.662 545.474 986.662L546.398 981.803L540.134 977.436L542.559 975.095L538.765 971.855L540.936 967.704L549.174 970.931L553.331 967.826L558.877 964.825L566.522 969.865L570.918 973.939L577.114 971.179L586.417 969.865L585.193 976.451L589.193 981.574L593.821 984.814L591.277 988.746L598.68 991.058L614.776 984.769L621.165 987.277L624.81 985.838L626.479 984.814L628.91 982.582L633.148 981.806H635.959V974.679L651.739 972.493L655.362 971.858L653.997 964.403C653.997 964.403 660.853 961.93 661.793 961.817C662.734 961.704 680.346 963.762 680.346 963.762L682.426 960.754L697.694 958.903L705.204 958.719L709.03 960.754L711.197 959.27L712.205 957.885L711.342 952.146L708.801 949.416C708.801 949.416 710.807 947.158 711.116 946.488C711.426 945.818 716.665 946.408 716.665 946.408L734.255 946.72L737.845 949.216L740.956 955.196C740.956 955.196 747.204 956.816 747.896 956.584C748.592 956.352 752.756 955.66 752.756 955.66L756.437 948.772L770.638 950.726L774.271 956.816L773.807 959.592L771.956 967.227L786.531 979.259L792.547 981.803L794.63 980.879C794.63 980.879 798.098 973.707 798.098 973.014C798.098 972.319 796.965 962.941 796.965 962.941L800.643 960.291L800.253 947.818L792.521 943.989L787.449 945.529L783.533 940.859L786.315 939.059L798.124 930.213L786.628 902.852L770.989 884.544C770.989 884.544 780.361 872.043 782.972 871.389C785.584 870.735 805.599 864.684 807.898 864.108C810.197 863.535 829.742 848.666 829.742 848.666L837.79 821.573L844.688 818.124L855.898 826.459C855.898 826.459 863.945 825.885 865.382 825.309C866.818 824.736 872.573 813.448 872.637 813.361C872.701 813.278 873.903 784.117 873.903 784.117L864.805 769.265L842.127 753.176Z"/>
</mask>
<path d="M842.127 753.176L794.131 704.61L779.472 698.575L761.077 686.505L754.466 670.123L747.568 654.027L733.839 639.497L740.67 635.607L739.752 627.852L745.687 621.054L746.576 615.666L736.358 600.572L722.246 592.744L716.955 583.298L720.356 572.719L723.219 570.452L712.765 564.202L690.432 546.19L689.994 535.756L684.59 540.773L648.535 543.05L639.302 539.582L638.053 524.768C636.787 524.092 635.547 523.432 634.739 523.019C632.82 523.963 628.16 526.44 623.661 528.884V531.75L623.384 540.313L623.696 558.411L610.287 561.071L608.564 548.969L601.34 547.884L583.538 543.153L570.299 546.853L569.317 549.298L581.774 563.831L561.385 570.105L552.265 553.655L544.131 543.298L518.648 518.778L504.762 518.991L504.72 518.949L496.237 536.262L485.401 543.462L477.495 538.922L474.448 544.135L475.092 552.273L471.318 557.368L452.981 569.873L449.336 568.327L448.096 571.293L450.489 574.964L452.605 586.329L443.884 591.51L433.804 589.691L425.766 582.129L415.59 582.796L412.34 587.408L403.552 587.456L399.446 589.749L398 599.783L404.528 613.47L410.521 634.132L409.194 657.251L409.664 665.086L412.55 664.874L433.298 651.077L425.328 636.779L436.699 631.404L452.241 633.117L464.227 631.011L470.349 644.679L466.12 648.987L468.059 650.456L477.037 642.495L488.702 651.422L479.237 666.062L487.095 667.653L493.638 661.263L501.776 673.688L500.733 679.285L509.634 686.225L515.347 699.47L510.326 706.39L512.713 719.381L523.069 732.253L520.252 739.003L531.964 749.701L544.247 754.664L542.482 782.256L540.192 786.954L547.486 795.195L543.129 806.856L536.128 804.637L529.729 806.785L525.349 804.006L522.767 805.201L528.373 816.521L526.322 829.048L510.049 836.242H507.122L499.686 850.209L506.678 863.303L506.745 863.715L512.091 896.028L508.536 918.426L512.842 929.578L508.159 936.863L513.933 956.285L499.068 959.347L489.98 953.663L478.863 954.984L476.055 961.128L476.133 961.341L478.825 968.155L490.779 969.311L493.194 973.014L503.367 982.73L501.979 987.59L504.291 992.678L516.091 991.986L517.015 1000.31L513.315 1004.25L515.167 1007.39H524.19C524.19 1007.39 529.893 1003.81 531.13 1002.86C532.37 1001.9 545.474 986.662 545.474 986.662L546.398 981.803L540.134 977.436L542.559 975.095L538.765 971.855L540.936 967.704L549.174 970.931L553.331 967.826L558.877 964.825L566.522 969.865L570.918 973.939L577.114 971.179L586.417 969.865L585.193 976.451L589.193 981.574L593.821 984.814L591.277 988.746L598.68 991.058L614.776 984.769L621.165 987.277L624.81 985.838L626.479 984.814L628.91 982.582L633.148 981.806H635.959V974.679L651.739 972.493L655.362 971.858L653.997 964.403C653.997 964.403 660.853 961.93 661.793 961.817C662.734 961.704 680.346 963.762 680.346 963.762L682.426 960.754L697.694 958.903L705.204 958.719L709.03 960.754L711.197 959.27L712.205 957.885L711.342 952.146L708.801 949.416C708.801 949.416 710.807 947.158 711.116 946.488C711.426 945.818 716.665 946.408 716.665 946.408L734.255 946.72L737.845 949.216L740.956 955.196C740.956 955.196 747.204 956.816 747.896 956.584C748.592 956.352 752.756 955.66 752.756 955.66L756.437 948.772L770.638 950.726L774.271 956.816L773.807 959.592L771.956 967.227L786.531 979.259L792.547 981.803L794.63 980.879C794.63 980.879 798.098 973.707 798.098 973.014C798.098 972.319 796.965 962.941 796.965 962.941L800.643 960.291L800.253 947.818L792.521 943.989L787.449 945.529L783.533 940.859L786.315 939.059L798.124 930.213L786.628 902.852L770.989 884.544C770.989 884.544 780.361 872.043 782.972 871.389C785.584 870.735 805.599 864.684 807.898 864.108C810.197 863.535 829.742 848.666 829.742 848.666L837.79 821.573L844.688 818.124L855.898 826.459C855.898 826.459 863.945 825.885 865.382 825.309C866.818 824.736 872.573 813.448 872.637 813.361C872.701 813.278 873.903 784.117 873.903 784.117L864.805 769.265L842.127 753.176Z" fill="#071943" fill-opacity="0.05" stroke="black" stroke-opacity="0.2" stroke-width="1.85268" mask="url(#path-10-inside-3_217_412)"/>
<mask id="path-11-inside-4_217_412" fill="white">
<path d="M467.778 960.3L472.087 957.688L475.465 950.288L491.193 948.417L500.072 953.972L507.527 952.436L502.664 936.083L507.211 929.008L503.343 918.986L506.982 896.054L501.839 864.964L493.966 850.222L504.107 831.176H509.011L521.786 825.528L523.129 817.326L515.935 802.798L525.76 798.245L530.44 801.214L536.117 799.308L540.094 800.567L541.692 796.287L534.172 787.788L537.505 780.939L538.974 758.003L529.242 754.071L514.215 740.346L517.246 733.087L507.974 721.565L504.963 705.17L509.562 698.829L505.507 689.432L495.196 681.391L496.429 674.763L492.79 669.208L488.739 673.163L470.946 669.562L481.909 652.607L477.294 649.074L468.332 657.022L458.474 649.551L464.322 643.596L461.231 636.702L452.426 638.247L437.593 636.611L432.428 639.052L440.041 652.707L414.274 669.839L410.961 670.084L400.862 681.172L390.821 680.978L388.408 692.82H375.137V679.674L367.811 674.055L362.694 663.031L360.33 663.353L361.068 674.109L351.603 678.296L341.481 668.222L339.726 672.824L349.304 702.97L337.507 729.239L326.165 758.187L325.109 758.586C322.552 759.552 319.766 760.608 316.862 761.713L316.063 763.043L313.519 765.948L313.065 770.579L309.886 775.21C309.886 775.21 310.021 778.362 308.978 780.568L307.22 783.016L303.787 785.405L301.732 788.413L297.9 788.651L295.266 789.74L294.992 796.187L292.902 797.185L290.812 801.816L285.431 805.153L283.727 804.814L281.277 806.45L280.8 821.164L280.713 825.096L278.462 826.433L276.465 830.155C276.465 830.155 275.377 835.878 274.285 838.148L272.469 841.327L273.915 844.531L276.192 849.127L275.757 853.423L272.981 855.967L265.284 869.702L259.304 881.897L255.633 895.065L256.557 900.849L262.473 903.696L264.647 909.409L260.718 909.641L257.246 917.044L252.85 926.76L254.934 936.708L253.546 943.416L249.846 943.184L251.665 952.436L254.934 955.908L256.786 964.236L262.331 963.562L267.526 960.877L267.658 964.239L264.647 969.881L267.658 970.947L276.488 966.973L280.613 967.707L282.091 965.395L283.621 964.007L288.084 963.311L289.637 967.939L304.209 967.047L313.928 964.702L317.386 960.77L326.945 958.461L330.39 964.545L341.964 964.261C341.964 964.261 346.122 959.35 346.917 958.461C347.713 957.569 349.139 956.842 349.139 956.842V954.523L345.623 953.135L342.976 953.273L337.031 950.591L338.982 949.399L344.631 939.281L349.133 936.019C349.133 936.019 353.68 933.149 354.685 932.792C355.69 932.434 358.646 933.935 358.646 933.935L360.443 934.399L365.579 932.351L370.603 938.099L370.139 943.883L373.537 946.404L375.009 946.607L376.464 941.777L378.673 941.062V945.271L382.428 945.602L384.93 947.354L383.468 949.898L386.135 953.312C386.135 953.312 392.115 953.367 392.807 953.367C393.503 953.367 401.445 948.185 401.445 948.185L407.834 952.674L414.091 954.062C414.091 954.062 419.417 951.782 420.126 951.708C420.834 951.634 422.187 953.599 422.187 953.599L425.117 953.83L434.511 958.139L447.293 969.884L449.876 968.361L458.738 967.018L462.725 960.754L467.778 960.3Z"/>
</mask>
<path d="M467.778 960.3L472.087 957.688L475.465 950.288L491.193 948.417L500.072 953.972L507.527 952.436L502.664 936.083L507.211 929.008L503.343 918.986L506.982 896.054L501.839 864.964L493.966 850.222L504.107 831.176H509.011L521.786 825.528L523.129 817.326L515.935 802.798L525.76 798.245L530.44 801.214L536.117 799.308L540.094 800.567L541.692 796.287L534.172 787.788L537.505 780.939L538.974 758.003L529.242 754.071L514.215 740.346L517.246 733.087L507.974 721.565L504.963 705.17L509.562 698.829L505.507 689.432L495.196 681.391L496.429 674.763L492.79 669.208L488.739 673.163L470.946 669.562L481.909 652.607L477.294 649.074L468.332 657.022L458.474 649.551L464.322 643.596L461.231 636.702L452.426 638.247L437.593 636.611L432.428 639.052L440.041 652.707L414.274 669.839L410.961 670.084L400.862 681.172L390.821 680.978L388.408 692.82H375.137V679.674L367.811 674.055L362.694 663.031L360.33 663.353L361.068 674.109L351.603 678.296L341.481 668.222L339.726 672.824L349.304 702.97L337.507 729.239L326.165 758.187L325.109 758.586C322.552 759.552 319.766 760.608 316.862 761.713L316.063 763.043L313.519 765.948L313.065 770.579L309.886 775.21C309.886 775.21 310.021 778.362 308.978 780.568L307.22 783.016L303.787 785.405L301.732 788.413L297.9 788.651L295.266 789.74L294.992 796.187L292.902 797.185L290.812 801.816L285.431 805.153L283.727 804.814L281.277 806.45L280.8 821.164L280.713 825.096L278.462 826.433L276.465 830.155C276.465 830.155 275.377 835.878 274.285 838.148L272.469 841.327L273.915 844.531L276.192 849.127L275.757 853.423L272.981 855.967L265.284 869.702L259.304 881.897L255.633 895.065L256.557 900.849L262.473 903.696L264.647 909.409L260.718 909.641L257.246 917.044L252.85 926.76L254.934 936.708L253.546 943.416L249.846 943.184L251.665 952.436L254.934 955.908L256.786 964.236L262.331 963.562L267.526 960.877L267.658 964.239L264.647 969.881L267.658 970.947L276.488 966.973L280.613 967.707L282.091 965.395L283.621 964.007L288.084 963.311L289.637 967.939L304.209 967.047L313.928 964.702L317.386 960.77L326.945 958.461L330.39 964.545L341.964 964.261C341.964 964.261 346.122 959.35 346.917 958.461C347.713 957.569 349.139 956.842 349.139 956.842V954.523L345.623 953.135L342.976 953.273L337.031 950.591L338.982 949.399L344.631 939.281L349.133 936.019C349.133 936.019 353.68 933.149 354.685 932.792C355.69 932.434 358.646 933.935 358.646 933.935L360.443 934.399L365.579 932.351L370.603 938.099L370.139 943.883L373.537 946.404L375.009 946.607L376.464 941.777L378.673 941.062V945.271L382.428 945.602L384.93 947.354L383.468 949.898L386.135 953.312C386.135 953.312 392.115 953.367 392.807 953.367C393.503 953.367 401.445 948.185 401.445 948.185L407.834 952.674L414.091 954.062C414.091 954.062 419.417 951.782 420.126 951.708C420.834 951.634 422.187 953.599 422.187 953.599L425.117 953.83L434.511 958.139L447.293 969.884L449.876 968.361L458.738 967.018L462.725 960.754L467.778 960.3Z" fill="#071943" fill-opacity="0.05" stroke="black" stroke-opacity="0.2" stroke-width="1.85268" mask="url(#path-11-inside-4_217_412)"/>
<mask id="path-12-inside-5_217_412" fill="white">
<path d="M96.6887 449.121L104.34 448.834L103.48 450.65C103.48 450.65 103.577 453.903 103.957 454.189C104.34 454.476 108.069 458.492 108.069 458.492L110.691 462.492L110.556 464.517L109.789 467.577L106.633 469.776L102.807 473.122L101.948 478.477L102.521 481.347L103.989 481.17L105.954 483.141L105.593 487.936L105.87 489.668L109.123 490.145L113.425 490.225C113.425 490.225 114.285 491.581 114.385 491.868C114.481 492.154 115.992 495.127 115.992 495.127L115.531 497.317L116.871 499.516L119.07 502.385L124.535 503.091L128.033 504.472L126.912 506.401L122.609 509.416L118.594 515.966L118.784 517.112L120.87 517.048L120.983 518.832L121.75 521.318L123.089 523.804H125.959L131.411 523.225C131.411 523.225 134.563 527.15 134.66 527.437C134.757 527.723 135.137 530.786 135.137 530.786L136.959 530.474L137.813 531.742C137.813 531.742 138.196 534.422 138.386 534.708C138.512 534.898 137.384 538.647 136.605 541.162L156.745 546.021L179.661 543.706L191.986 529.498L198.971 509.229L220.383 503.876L229.661 502.192L236.733 489.015L257.685 484.084V482.265L268.286 471.583L270.498 467.77L273.864 455.871L282.494 453.355L299.952 465.435L301.775 485.276L311.925 487.842L309.516 481.582L320.427 467.019L341.517 449.253L347.394 446.048L347.05 442.342C346.976 441.469 346.464 433.917 350.215 429.412L351.114 428.333L364.514 430.137L366.163 425.354L370.156 418.695L372.8 413.136L370.488 408.219L367.232 411.552L346.506 407.501L354.846 401.971L364.478 387.199L375.35 383.757L385.987 384.906L389.53 383.383L383.099 371.378L393.194 363.958L404.688 364.741L407.725 372.421L411.654 373.262L418.771 369.642L429.826 353.914L432.135 347.019L432.534 328.015L439.436 327.397L440.106 316.87L427.427 301.959L420.919 292.665L415.151 288.389L410.704 273.037L408.163 269.108L395.491 265.112L403.174 258.584L404.06 256.485L397.851 253.306L392.035 241.188L403.277 235.597L409.068 221.057L408.842 212.572L406.643 211.918L402.453 220.797L388.431 230.461L364.408 226.3L370.89 214.436L367.006 206.53L360.092 211.3L350.856 208.047L348.686 208.759L342.419 218.974L333.524 218.117L332.619 218.452L334.172 220.929L346.918 225.337L352.611 246.556V261.132L342.499 271.762L337.276 264.813L331.953 265.724L328.584 278.129L307.075 282.396L292.468 284.711L285.631 271.108L298.683 265.531L297.91 256.562H285.692L290.078 242.022L297.141 235.407L292.671 226.22L284.861 229.508L269.075 225.289L264.315 214.687L262.222 215.032L262.824 222.278L258.828 228.696L243.119 238.814L205.753 248.624L205.83 248.759L204.71 248.901L204.603 248.93L203.602 250.385C203.602 250.385 202.03 251.4 201.879 251.4C201.727 251.4 198.456 252.189 198.456 252.189L198.076 253.023L197.57 254.089L197.419 255.406L195.554 258.655L193.412 259.006L191.487 258.298L190.421 258.755L189.355 260.124C189.355 260.124 189.049 264.79 189.419 265.041C189.786 265.292 188.646 265.904 188.646 265.904L186.241 267.956L179.977 268.442L176.782 269.711L175.311 271.079L175.411 273.057L174.802 275.388C174.802 275.388 172.367 276.2 172.164 276.3C171.962 276.399 170.96 277.72 170.96 277.72L170.644 279.24L171.253 282.231L174.548 283.449L175.662 283.652L178.096 285.123C178.096 285.123 179.668 286.238 179.871 286.138C180.074 286.038 181.697 288.266 181.697 288.266L182.508 288.772C182.508 288.772 183.825 289.381 183.928 289.532C184.032 289.683 183.928 291.207 183.928 291.207L182.863 292.321L181.645 292.727L181.291 294.553L180.428 296.63L179.729 298.733L178.856 299.064L177.169 301.46L176.219 301.496L175.459 302.001L175.317 302.926L173.842 303.65L172.976 303.116L172.673 302.05L171.356 300.935L167.704 301.493L167.147 301.702L165.018 302.252L164.004 303.57L161.598 305.045L159.087 305.953L154.066 306.755L153.75 307.061L152.24 308.742L150.079 309.659L145.596 308.993L144.582 309.247L143.062 310.361L142.911 311.782L142.827 313.353L141.919 314.954L139.21 314.519L138.801 314.271L139.513 312.339L139.616 311.833L139.313 311.276L137.137 310.809L133.488 312.091L132.876 311.173L132.167 310.158L131.478 309.141L123.266 309.553L118.252 311.962L115.885 313.55L112.852 312.39L112.7 311.479L112.346 310.365L110.572 309.704L109.76 309.959L107.277 311.733L104.389 312.545H103.171L102.968 313.205L102.511 314.116L100.431 315.028L97.9479 315.688L96.8819 316.905L96.8304 318.528L100.482 320.86C100.482 320.86 101.091 322.177 101.294 322.38C101.497 322.583 101.039 324.257 101.039 324.257L100.634 325.069L99.1136 326.386L99.265 327.094L100.988 329.983L102.102 331.758L103.574 331.658L105.484 331.993C105.484 331.993 105.654 333.79 105.645 333.992C105.635 334.195 105.248 335.409 105.248 335.409L105.957 337.538L107.731 339.87L112.597 341.696L113.306 343.573L111.026 351.634L111.786 352.851L115.538 356.046L122.89 368.946L124.616 386.314L124.007 389.103L122.181 390.065L119.138 392.751L116.603 395.64L115.589 397.16L115.283 400.251L112.037 402.989L110.06 405.066L109.805 407.652L109.702 417.432C109.702 417.432 111.712 417.719 112.092 417.622C112.475 417.526 118.117 415.519 118.117 415.519L119.309 417.848L118.5 420.588L116.491 422.311L113.621 424.414L108.743 425.084L105.203 429.1L100.56 433.598L100.041 435.698L99.3713 437.324L97.0751 438.854L95.2588 437.228L94.3024 436.465L90.7729 438.474L90 441.15L92.2961 446.219L96.6887 449.121Z"/>
</mask>
<path d="M96.6887 449.121L104.34 448.834L103.48 450.65C103.48 450.65 103.577 453.903 103.957 454.189C104.34 454.476 108.069 458.492 108.069 458.492L110.691 462.492L110.556 464.517L109.789 467.577L106.633 469.776L102.807 473.122L101.948 478.477L102.521 481.347L103.989 481.17L105.954 483.141L105.593 487.936L105.87 489.668L109.123 490.145L113.425 490.225C113.425 490.225 114.285 491.581 114.385 491.868C114.481 492.154 115.992 495.127 115.992 495.127L115.531 497.317L116.871 499.516L119.07 502.385L124.535 503.091L128.033 504.472L126.912 506.401L122.609 509.416L118.594 515.966L118.784 517.112L120.87 517.048L120.983 518.832L121.75 521.318L123.089 523.804H125.959L131.411 523.225C131.411 523.225 134.563 527.15 134.66 527.437C134.757 527.723 135.137 530.786 135.137 530.786L136.959 530.474L137.813 531.742C137.813 531.742 138.196 534.422 138.386 534.708C138.512 534.898 137.384 538.647 136.605 541.162L156.745 546.021L179.661 543.706L191.986 529.498L198.971 509.229L220.383 503.876L229.661 502.192L236.733 489.015L257.685 484.084V482.265L268.286 471.583L270.498 467.77L273.864 455.871L282.494 453.355L299.952 465.435L301.775 485.276L311.925 487.842L309.516 481.582L320.427 467.019L341.517 449.253L347.394 446.048L347.05 442.342C346.976 441.469 346.464 433.917 350.215 429.412L351.114 428.333L364.514 430.137L366.163 425.354L370.156 418.695L372.8 413.136L370.488 408.219L367.232 411.552L346.506 407.501L354.846 401.971L364.478 387.199L375.35 383.757L385.987 384.906L389.53 383.383L383.099 371.378L393.194 363.958L404.688 364.741L407.725 372.421L411.654 373.262L418.771 369.642L429.826 353.914L432.135 347.019L432.534 328.015L439.436 327.397L440.106 316.87L427.427 301.959L420.919 292.665L415.151 288.389L410.704 273.037L408.163 269.108L395.491 265.112L403.174 258.584L404.06 256.485L397.851 253.306L392.035 241.188L403.277 235.597L409.068 221.057L408.842 212.572L406.643 211.918L402.453 220.797L388.431 230.461L364.408 226.3L370.89 214.436L367.006 206.53L360.092 211.3L350.856 208.047L348.686 208.759L342.419 218.974L333.524 218.117L332.619 218.452L334.172 220.929L346.918 225.337L352.611 246.556V261.132L342.499 271.762L337.276 264.813L331.953 265.724L328.584 278.129L307.075 282.396L292.468 284.711L285.631 271.108L298.683 265.531L297.91 256.562H285.692L290.078 242.022L297.141 235.407L292.671 226.22L284.861 229.508L269.075 225.289L264.315 214.687L262.222 215.032L262.824 222.278L258.828 228.696L243.119 238.814L205.753 248.624L205.83 248.759L204.71 248.901L204.603 248.93L203.602 250.385C203.602 250.385 202.03 251.4 201.879 251.4C201.727 251.4 198.456 252.189 198.456 252.189L198.076 253.023L197.57 254.089L197.419 255.406L195.554 258.655L193.412 259.006L191.487 258.298L190.421 258.755L189.355 260.124C189.355 260.124 189.049 264.79 189.419 265.041C189.786 265.292 188.646 265.904 188.646 265.904L186.241 267.956L179.977 268.442L176.782 269.711L175.311 271.079L175.411 273.057L174.802 275.388C174.802 275.388 172.367 276.2 172.164 276.3C171.962 276.399 170.96 277.72 170.96 277.72L170.644 279.24L171.253 282.231L174.548 283.449L175.662 283.652L178.096 285.123C178.096 285.123 179.668 286.238 179.871 286.138C180.074 286.038 181.697 288.266 181.697 288.266L182.508 288.772C182.508 288.772 183.825 289.381 183.928 289.532C184.032 289.683 183.928 291.207 183.928 291.207L182.863 292.321L181.645 292.727L181.291 294.553L180.428 296.63L179.729 298.733L178.856 299.064L177.169 301.46L176.219 301.496L175.459 302.001L175.317 302.926L173.842 303.65L172.976 303.116L172.673 302.05L171.356 300.935L167.704 301.493L167.147 301.702L165.018 302.252L164.004 303.57L161.598 305.045L159.087 305.953L154.066 306.755L153.75 307.061L152.24 308.742L150.079 309.659L145.596 308.993L144.582 309.247L143.062 310.361L142.911 311.782L142.827 313.353L141.919 314.954L139.21 314.519L138.801 314.271L139.513 312.339L139.616 311.833L139.313 311.276L137.137 310.809L133.488 312.091L132.876 311.173L132.167 310.158L131.478 309.141L123.266 309.553L118.252 311.962L115.885 313.55L112.852 312.39L112.7 311.479L112.346 310.365L110.572 309.704L109.76 309.959L107.277 311.733L104.389 312.545H103.171L102.968 313.205L102.511 314.116L100.431 315.028L97.9479 315.688L96.8819 316.905L96.8304 318.528L100.482 320.86C100.482 320.86 101.091 322.177 101.294 322.38C101.497 322.583 101.039 324.257 101.039 324.257L100.634 325.069L99.1136 326.386L99.265 327.094L100.988 329.983L102.102 331.758L103.574 331.658L105.484 331.993C105.484 331.993 105.654 333.79 105.645 333.992C105.635 334.195 105.248 335.409 105.248 335.409L105.957 337.538L107.731 339.87L112.597 341.696L113.306 343.573L111.026 351.634L111.786 352.851L115.538 356.046L122.89 368.946L124.616 386.314L124.007 389.103L122.181 390.065L119.138 392.751L116.603 395.64L115.589 397.16L115.283 400.251L112.037 402.989L110.06 405.066L109.805 407.652L109.702 417.432C109.702 417.432 111.712 417.719 112.092 417.622C112.475 417.526 118.117 415.519 118.117 415.519L119.309 417.848L118.5 420.588L116.491 422.311L113.621 424.414L108.743 425.084L105.203 429.1L100.56 433.598L100.041 435.698L99.3713 437.324L97.0751 438.854L95.2588 437.228L94.3024 436.465L90.7729 438.474L90 441.15L92.2961 446.219L96.6887 449.121Z" fill="#F7C60B" stroke="black" stroke-opacity="0.2" stroke-width="1.85268" mask="url(#path-12-inside-5_217_412)"/>
<path d="M166.567 374.469L158.127 366.044V374H155.501V359.463L163.941 367.873V359.932H166.567V374.469ZM173.695 374.313C172.768 374.313 171.918 374.089 171.147 373.64C170.376 373.192 169.761 372.588 169.303 371.827C168.855 371.067 168.631 370.228 168.631 369.311C168.631 368.383 168.855 367.544 169.303 366.794C169.761 366.033 170.376 365.429 171.147 364.981C171.918 364.533 172.768 364.309 173.695 364.309C174.633 364.309 175.482 364.533 176.243 364.981C177.014 365.429 177.624 366.033 178.072 366.794C178.53 367.544 178.759 368.383 178.759 369.311C178.759 370.228 178.53 371.067 178.072 371.827C177.624 372.588 177.014 373.192 176.243 373.64C175.482 374.089 174.633 374.313 173.695 374.313ZM173.695 371.874C174.164 371.874 174.586 371.76 174.961 371.53C175.347 371.301 175.649 370.994 175.868 370.608C176.097 370.212 176.212 369.78 176.212 369.311C176.212 368.831 176.097 368.399 175.868 368.013C175.649 367.628 175.347 367.32 174.961 367.091C174.586 366.862 174.164 366.747 173.695 366.747C173.226 366.747 172.799 366.862 172.413 367.091C172.038 367.32 171.736 367.628 171.507 368.013C171.288 368.399 171.178 368.831 171.178 369.311C171.178 369.78 171.288 370.212 171.507 370.608C171.736 370.994 172.038 371.301 172.413 371.53C172.799 371.76 173.226 371.874 173.695 371.874ZM180.354 374V364.621H182.792V366.231C183.115 365.69 183.522 365.273 184.011 364.981C184.512 364.679 185.095 364.528 185.762 364.528L186.356 366.935C186.158 366.872 185.934 366.841 185.684 366.841C184.902 366.841 184.272 367.096 183.793 367.607C183.313 368.107 183.074 368.826 183.074 369.764V374H180.354ZM191.47 374.25C190.594 374.25 189.802 374.026 189.094 373.578C188.385 373.13 187.817 372.536 187.39 371.796C186.973 371.046 186.765 370.217 186.765 369.311C186.765 368.404 186.973 367.576 187.39 366.825C187.817 366.075 188.385 365.481 189.094 365.043C189.802 364.595 190.594 364.371 191.47 364.371C191.97 364.371 192.434 364.444 192.861 364.59C193.288 364.736 193.674 364.944 194.018 365.215V358.994H196.737V374H194.393V373.078C194.038 373.442 193.611 373.729 193.111 373.937C192.611 374.146 192.064 374.25 191.47 374.25ZM191.782 371.859C192.241 371.859 192.658 371.744 193.033 371.515C193.408 371.285 193.705 370.978 193.924 370.592C194.153 370.207 194.268 369.78 194.268 369.311C194.268 368.842 194.153 368.415 193.924 368.029C193.705 367.643 193.408 367.336 193.033 367.107C192.658 366.878 192.241 366.763 191.782 366.763C191.324 366.763 190.907 366.878 190.532 367.107C190.157 367.336 189.855 367.643 189.625 368.029C189.406 368.415 189.297 368.842 189.297 369.311C189.297 369.78 189.406 370.207 189.625 370.592C189.855 370.978 190.157 371.285 190.532 371.515C190.907 371.744 191.324 371.859 191.782 371.859ZM198.796 374V364.621H201.234V366.231C201.557 365.69 201.964 365.273 202.453 364.981C202.954 364.679 203.537 364.528 204.204 364.528L204.798 366.935C204.6 366.872 204.376 366.841 204.126 366.841C203.344 366.841 202.714 367.096 202.235 367.607C201.755 368.107 201.516 368.826 201.516 369.764V374H198.796ZM205.984 374V358.994H208.703V365.325C209.037 364.991 209.417 364.741 209.844 364.575C210.282 364.397 210.746 364.309 211.236 364.309C211.902 364.309 212.523 364.47 213.096 364.793C213.679 365.106 214.148 365.57 214.502 366.185C214.867 366.789 215.05 367.524 215.05 368.388V374H212.33V368.748C212.33 368.227 212.173 367.763 211.861 367.357C211.548 366.95 211.1 366.747 210.517 366.747C210.048 366.747 209.626 366.909 209.25 367.232C208.886 367.544 208.703 368.039 208.703 368.717V374H205.984ZM221.791 374.313C220.739 374.313 219.811 374.094 219.009 373.656C218.207 373.218 217.581 372.619 217.133 371.859C216.685 371.087 216.461 370.207 216.461 369.217C216.461 368.269 216.68 367.43 217.118 366.7C217.555 365.96 218.144 365.377 218.884 364.95C219.634 364.522 220.463 364.309 221.369 364.309C222.297 364.309 223.125 364.522 223.855 364.95C224.584 365.367 225.157 365.94 225.574 366.669C226.001 367.399 226.215 368.227 226.215 369.154V370.108H220.494C220.233 370.108 219.983 370.092 219.744 370.061C219.504 370.03 219.264 369.993 219.025 369.952C219.15 370.577 219.457 371.087 219.947 371.483C220.447 371.869 221.083 372.062 221.854 372.062C222.448 372.062 222.979 371.942 223.448 371.702C223.928 371.463 224.318 371.166 224.621 370.811L225.215 373.25C224.746 373.604 224.214 373.87 223.62 374.047C223.037 374.224 222.427 374.313 221.791 374.313ZM218.962 368.31C219.483 368.196 219.994 368.138 220.494 368.138H222.151C222.443 368.138 222.719 368.149 222.979 368.17C223.24 368.191 223.485 368.227 223.714 368.279C223.558 367.716 223.271 367.273 222.854 366.95C222.448 366.627 221.942 366.466 221.338 366.466C220.765 366.466 220.265 366.633 219.837 366.966C219.421 367.289 219.129 367.737 218.962 368.31ZM227.754 374V364.621H230.474V374H227.754ZM229.114 363.262C228.708 363.262 228.364 363.121 228.082 362.84C227.801 362.558 227.66 362.214 227.66 361.808C227.66 361.391 227.801 361.047 228.082 360.776C228.364 360.495 228.708 360.354 229.114 360.354C229.531 360.354 229.875 360.495 230.146 360.776C230.427 361.047 230.568 361.391 230.568 361.808C230.568 362.214 230.427 362.558 230.146 362.84C229.875 363.121 229.531 363.262 229.114 363.262ZM232.559 374V364.621H234.997V365.653C235.33 365.215 235.742 364.882 236.232 364.653C236.722 364.423 237.248 364.309 237.811 364.309C238.478 364.309 239.098 364.47 239.671 364.793C240.254 365.106 240.723 365.57 241.077 366.185C241.442 366.789 241.625 367.524 241.625 368.388V374H238.905V368.748C238.905 368.227 238.748 367.763 238.436 367.357C238.123 366.95 237.675 366.747 237.092 366.747C236.623 366.747 236.201 366.909 235.825 367.232C235.461 367.544 235.278 368.039 235.278 368.717V374H232.559ZM253.033 374.5L247.249 359.932H250.219L252.595 365.934C252.71 366.216 252.819 366.513 252.923 366.825C253.038 367.128 253.163 367.498 253.298 367.935C253.434 367.498 253.564 367.128 253.689 366.825C253.825 366.513 253.95 366.216 254.064 365.934L256.753 359.463L259.473 365.934C259.587 366.216 259.712 366.513 259.848 366.825C259.983 367.128 260.119 367.498 260.254 367.935C260.39 367.498 260.515 367.128 260.629 366.825C260.744 366.513 260.853 366.216 260.958 365.934L263.302 359.932H266.131L260.348 374.5L257.441 367.56C257.326 367.279 257.206 366.982 257.081 366.669C256.956 366.356 256.826 365.981 256.69 365.544C256.555 365.981 256.425 366.356 256.3 366.669C256.175 366.971 256.055 367.263 255.94 367.544L253.033 374.5ZM270.721 374.313C269.669 374.313 268.741 374.094 267.939 373.656C267.136 373.218 266.511 372.619 266.063 371.859C265.615 371.087 265.391 370.207 265.391 369.217C265.391 368.269 265.61 367.43 266.047 366.7C266.485 365.96 267.074 365.377 267.814 364.95C268.564 364.522 269.392 364.309 270.299 364.309C271.226 364.309 272.055 364.522 272.784 364.95C273.514 365.367 274.087 365.94 274.504 366.669C274.931 367.399 275.145 368.227 275.145 369.154V370.108H269.424C269.163 370.108 268.913 370.092 268.673 370.061C268.434 370.03 268.194 369.993 267.954 369.952C268.079 370.577 268.387 371.087 268.877 371.483C269.377 371.869 270.012 372.062 270.784 372.062C271.378 372.062 271.909 371.942 272.378 371.702C272.857 371.463 273.248 371.166 273.55 370.811L274.144 373.25C273.675 373.604 273.144 373.87 272.55 374.047C271.966 374.224 271.357 374.313 270.721 374.313ZM267.892 368.31C268.413 368.196 268.923 368.138 269.424 368.138H271.081C271.372 368.138 271.648 368.149 271.909 368.17C272.17 368.191 272.414 368.227 272.644 368.279C272.487 367.716 272.201 367.273 271.784 366.95C271.378 366.627 270.872 366.466 270.268 366.466C269.695 366.466 269.194 366.633 268.767 366.966C268.35 367.289 268.059 367.737 267.892 368.31ZM279.732 374.313C279.096 374.313 278.45 374.208 277.794 374C277.147 373.792 276.642 373.51 276.277 373.156L276.949 370.592C277.252 371.009 277.669 371.374 278.2 371.687C278.742 371.999 279.299 372.156 279.872 372.156C280.258 372.156 280.534 372.083 280.701 371.937C280.878 371.791 280.967 371.614 280.967 371.405C280.967 371.166 280.878 370.994 280.701 370.889C280.524 370.775 280.341 370.681 280.154 370.608L278.841 370.108C278.549 369.993 278.216 369.837 277.84 369.639C277.465 369.441 277.137 369.16 276.856 368.795C276.585 368.43 276.449 367.951 276.449 367.357C276.449 366.815 276.585 366.315 276.856 365.856C277.127 365.398 277.517 365.028 278.028 364.746C278.549 364.455 279.174 364.309 279.904 364.309C280.581 364.309 281.212 364.423 281.795 364.653C282.389 364.882 282.821 365.137 283.092 365.419L282.467 367.888C282.113 367.43 281.691 367.081 281.201 366.841C280.722 366.591 280.263 366.466 279.826 366.466C279.492 366.466 279.247 366.534 279.091 366.669C278.935 366.805 278.856 366.961 278.856 367.138C278.856 367.273 278.909 367.409 279.013 367.544C279.127 367.669 279.315 367.784 279.575 367.888L280.795 368.342C281.149 368.467 281.524 368.633 281.92 368.842C282.327 369.05 282.67 369.342 282.952 369.717C283.233 370.082 283.374 370.587 283.374 371.233C283.374 372.14 283.035 372.88 282.358 373.453C281.691 374.026 280.816 374.313 279.732 374.313ZM286.033 374V366.779H284.283V364.621H286.08V361.495H288.706V364.621H290.566V366.779H288.753V374H286.033ZM293.067 374V366.779H291.317V364.621H293.114V362.23C293.114 361.115 293.437 360.266 294.083 359.682C294.74 359.099 295.548 358.807 296.506 358.807C296.861 358.807 297.199 358.848 297.522 358.932C297.856 359.005 298.147 359.125 298.398 359.291L297.866 361.495C297.553 361.11 297.189 360.917 296.772 360.917C296.522 360.917 296.287 361.005 296.069 361.183C295.85 361.36 295.74 361.688 295.74 362.167V364.621H297.6V366.779H295.787V374H293.067ZM302.766 374.25C301.901 374.25 301.114 374.026 300.406 373.578C299.697 373.13 299.129 372.536 298.702 371.796C298.285 371.046 298.077 370.217 298.077 369.311C298.077 368.404 298.285 367.576 298.702 366.825C299.129 366.075 299.697 365.481 300.406 365.043C301.114 364.595 301.901 364.371 302.766 364.371C303.37 364.371 303.923 364.481 304.423 364.7C304.923 364.908 305.35 365.2 305.705 365.575V364.621H308.049V374H305.705V373.047C305.35 373.422 304.923 373.719 304.423 373.937C303.923 374.146 303.37 374.25 302.766 374.25ZM303.094 371.859C303.553 371.859 303.969 371.744 304.345 371.515C304.72 371.285 305.017 370.978 305.236 370.592C305.465 370.207 305.579 369.78 305.579 369.311C305.579 368.842 305.465 368.415 305.236 368.029C305.017 367.643 304.72 367.336 304.345 367.107C303.969 366.878 303.553 366.763 303.094 366.763C302.636 366.763 302.219 366.878 301.844 367.107C301.469 367.336 301.166 367.643 300.937 368.029C300.718 368.415 300.609 368.842 300.609 369.311C300.609 369.78 300.718 370.207 300.937 370.592C301.166 370.978 301.469 371.285 301.844 371.515C302.219 371.744 302.636 371.859 303.094 371.859ZM310.139 374V358.994H312.859V374H310.139ZM319.805 374.313C318.752 374.313 317.825 374.094 317.022 373.656C316.22 373.218 315.595 372.619 315.147 371.859C314.698 371.087 314.474 370.207 314.474 369.217C314.474 368.269 314.693 367.43 315.131 366.7C315.569 365.96 316.157 365.377 316.897 364.95C317.648 364.522 318.476 364.309 319.383 364.309C320.31 364.309 321.138 364.522 321.868 364.95C322.597 365.367 323.17 365.94 323.587 366.669C324.015 367.399 324.228 368.227 324.228 369.154V370.108H318.507C318.247 370.108 317.997 370.092 317.757 370.061C317.517 370.03 317.278 369.993 317.038 369.952C317.163 370.577 317.47 371.087 317.96 371.483C318.46 371.869 319.096 372.062 319.867 372.062C320.461 372.062 320.993 371.942 321.461 371.702C321.941 371.463 322.332 371.166 322.634 370.811L323.228 373.25C322.759 373.604 322.227 373.87 321.633 374.047C321.05 374.224 320.44 374.313 319.805 374.313ZM316.975 368.31C317.496 368.196 318.007 368.138 318.507 368.138H320.164C320.456 368.138 320.732 368.149 320.993 368.17C321.253 368.191 321.498 368.227 321.727 368.279C321.571 367.716 321.284 367.273 320.868 366.95C320.461 366.627 319.956 366.466 319.351 366.466C318.778 366.466 318.278 366.633 317.851 366.966C317.434 367.289 317.142 367.737 316.975 368.31ZM325.736 374V364.621H328.174V365.653C328.508 365.215 328.92 364.882 329.409 364.653C329.899 364.423 330.425 364.309 330.988 364.309C331.655 364.309 332.275 364.47 332.848 364.793C333.432 365.106 333.901 365.57 334.255 366.185C334.62 366.789 334.802 367.524 334.802 368.388V374H332.082V368.748C332.082 368.227 331.926 367.763 331.613 367.357C331.301 366.95 330.853 366.747 330.269 366.747C329.8 366.747 329.378 366.909 329.003 367.232C328.638 367.544 328.456 368.039 328.456 368.717V374H325.736Z" fill="white"/>
<mask id="path-14-inside-6_217_412" fill="white">
<path d="M173.035 213.357L177.521 213.786L192.367 218.488L198.241 217.1L200.485 216.565L200.057 220.945L207.094 228.761L206.636 231.243L204.913 234.032L204.543 243.719L241.043 234.139L255.116 225.073L257.621 221.051L256.771 210.813L267.343 209.068L272.715 221.035L284.489 224.181L295.129 219.702L303.337 236.58L294.543 244.82L292.523 251.509H302.568L304.049 268.78L292.585 273.678L295.332 279.14L306.178 277.423L324.502 273.788L327.896 261.293L339.467 259.309L342.948 263.943L347.527 259.129V247.252L342.706 229.279L330.814 225.167L324.994 215.882L332.849 212.974L339.744 213.638L345.328 204.54L350.905 202.705L359.333 205.67L368.962 199.027L376.601 214.581L372.257 222.529L387.251 225.125L398.438 217.412L403.903 205.828L413.812 208.772L414.163 221.982L407.268 239.298L398.77 243.523L401.678 249.583L410.56 254.127L407.375 261.682L405.768 263.045L411.423 264.829L415.361 270.918L419.541 285.342L424.594 289.091L431.508 298.961L445.291 315.153L444.212 332.08L437.501 332.679L437.182 347.908L434.394 356.239L422.188 373.606L412.337 378.614L403.99 376.827L401.134 369.6L394.693 369.162L389.64 372.872L396.606 385.873L386.755 390.107L375.854 388.929L367.729 391.502L359.063 404.792L365.5 406.051L371.954 399.443L378.401 413.159L374.559 421.21L370.65 427.734L367.996 435.74L353.385 433.776C352.026 436.42 351.971 440.406 352.094 441.91L352.751 448.918L344.162 453.597L324.135 470.533L315.253 482.387L319.021 492.177L316.402 494.006L316.029 503.783L313.636 519.193L302.23 517.431C301.309 521.653 300.632 526.116 300.861 527.543C301.608 528.477 302.684 530.937 300.42 538.811C303.399 541.413 306.551 543.606 307.569 543.738C312.271 544.341 312.264 552.131 311.839 556.72L311.765 557.512L306.262 564.046L293.657 570.419L292.346 578.203L287.503 586.328L284.083 595.264L297.805 604.117L324.627 593.657L343.727 626.962L345.36 643L337.435 650.961L342.607 662.193L352.715 672.254L355.749 670.911L354.931 658.966L365.71 657.501L371.88 670.792L380.201 677.174V687.747H384.249L386.681 675.825L398.647 676.057L404.837 669.262L404.116 657.266L405.41 634.717L399.72 615.092L392.764 600.597L394.786 586.55L402.225 582.396L409.703 582.357L412.843 577.897L427.64 576.927L436.194 584.969L442.924 586.186L446.969 583.784L445.687 576.898L442.38 571.826L446.621 561.669L452.415 564.126L467.753 553.667L469.885 550.791L469.264 542.962L475.656 532.019L485.211 537.507L492.286 532.805L500.904 515.216L497.2 511.586L502.701 504.662L499.606 500.859L498.089 499.767L494.763 505.632L484.354 507.954L490.789 472.346L498.917 461.271L496.733 452.634L499.435 442.944L511.647 444.944L514.194 442.822L511.135 438.178L509.238 421.38L517.759 420.685L518.149 416.572H508.91L501.429 405.813H497.97L489.5 399.63L485.768 389.534L494.247 380.697L503.615 378.971L509.988 369.874L524.454 366.315L525.881 359.755L526.345 359.25C532.937 352.062 534.611 351.598 535.162 351.444C537.027 350.925 540.482 351.292 541.493 351.418L542.108 351.495L548.736 356.036L557.251 351.759L562.397 345.109C559.576 338.124 556.256 330.453 555.412 329.345C553.653 327.255 552.465 320.328 551.914 316.387L551.795 315.524L557.949 304.816L551.589 291.377L556.681 280.389L577.41 277.349L589.293 273.028L595.953 265.962L598.761 246.985L594.439 227.26L590.482 191.784L585.078 188.026L568.908 162.257L575.723 148.467H585.374L594.829 139.807L611.623 139.791L621.059 143.018L638.507 136.065L642.519 125.815L648.735 121.487L642.4 116.576L630.788 118.75L623.455 113.027L622.872 113.285L616.654 103.765L602.712 94.8576L597.447 85.9114L593.647 77.8637H585.996L573.897 70.9786L556.262 68.2251L556.191 67.8709L530.628 58.2678L514.416 38.8425L511.969 26.3313L514.011 17.6879L514.201 10.2134L511.364 8.91563L500.868 16.0359L481.427 26.8917L479.121 41.2127L465.676 36.0279L455.39 24.5248L435.079 -6.19758L420.958 -18.2031L409.304 -17.5172V-16.8441L403.636 -17.047L402.834 -15.6075L401.939 -12.2357L400.599 -11.1022L398.226 -12.3227L385.592 -12.4837L375.925 -13.3178L374.978 -15.2436L372.749 -18.0034L371.155 -20.3382C371.155 -20.3382 359.266 -21.6135 359.349 -21.826C359.433 -22.0386 357.356 -20.8019 357.356 -20.8019L355.868 -19.0662L354.065 -17.0502V-10.8929L348.758 5.66627L347.06 18.1903L349.076 26.8949L353.852 27.7451L357.356 27.2137L361.072 27.7451L361.816 28.7016L359.353 33.5837L364.727 39.1195C364.727 39.1195 362.186 42.182 361.993 42.2883C361.803 42.3946 355.34 47.5955 355.34 47.5955L350.245 46.2139L349.927 43.3478L352.368 39.7378C352.368 39.7378 353.746 38.5688 353.64 38.1469C353.533 37.7218 352.155 34.6432 352.155 34.6432L347.485 33.5804L344.088 32.624C344.088 32.624 336.659 26.7854 336.552 26.0415C336.446 25.2976 334.536 23.388 334.536 23.388L329.442 23.7068L323.603 25.7227L322.859 28.8014C322.859 28.8014 321.69 32.9396 322.009 33.3647C322.328 33.7897 322.647 35.5932 322.647 35.5932L323.284 38.4593L328.273 39.8376L330.076 41.9598C330.076 41.9598 329.864 47.1607 330.076 47.5858C330.289 48.0109 328.907 51.9365 328.907 51.9365L325.403 54.9089L324.66 56.606L324.553 58.0939L320.731 57.775L319.668 55.5466L313.829 52.7867L309.285 52.7899C309.285 52.7899 308.522 50.6645 308.522 50.3456C308.522 50.0268 307.991 47.9046 307.991 47.9046L308.416 46.1012L309.479 44.2978L312.239 42.9195L315.849 41.5412L316.699 39.5252L316.805 36.8716C316.805 36.8716 316.167 34.0055 316.167 33.6867C316.167 33.3679 316.486 31.3519 316.486 31.3519L313.939 27.7419L309.765 24.2736L309.479 21.7971L307.25 20.525L304.597 16.1743L299.383 6.78693L280.264 5.39895L278.235 6.14611L276.631 7.4278L268.728 8.2812L265.524 10.4163L256.977 13.1955H251.956H248.752L229.353 14.0489C229.353 14.0489 223.865 14.0489 223.971 13.7269C224.078 13.4081 222.368 14.1552 222.368 14.1552L220.658 15.8652L217.666 16.9343L215.956 18.6444L208.372 29.8609L209.335 34.7752L211.898 35.6286L212.327 36.1632L211.579 37.4449L208.481 38.192L206.453 38.8328L204.102 41.8246L201.645 44.2817V46.3105L201.857 54.9637L199.722 65.7519L200.363 69.8096L203.355 71.1975L213.293 69.5036L225.681 70.9818L226 71.9446L223.437 74.2956L222.368 78.7815L222.474 88.1818L217.775 102.709L217.669 105.807C217.669 105.807 219.959 106.937 219.981 107.024C220.007 107.108 221.369 125.28 221.369 125.28L219.846 130.658L215.531 137.801L209.657 146.184L209.122 151.89L207.306 153.127L206.913 183.376L205.19 185.749L202.926 184.316H196.837L195.233 184.422L194.057 182.822L192.882 181.733H177.286L174.722 181.238L172.159 183.141L173.122 185.968L173.444 194.46L171.84 198.734L169.811 200.869L169.489 204.286L170.935 210.482L173.035 213.357Z"/>
</mask>
<path d="M173.035 213.357L177.521 213.786L192.367 218.488L198.241 217.1L200.485 216.565L200.057 220.945L207.094 228.761L206.636 231.243L204.913 234.032L204.543 243.719L241.043 234.139L255.116 225.073L257.621 221.051L256.771 210.813L267.343 209.068L272.715 221.035L284.489 224.181L295.129 219.702L303.337 236.58L294.543 244.82L292.523 251.509H302.568L304.049 268.78L292.585 273.678L295.332 279.14L306.178 277.423L324.502 273.788L327.896 261.293L339.467 259.309L342.948 263.943L347.527 259.129V247.252L342.706 229.279L330.814 225.167L324.994 215.882L332.849 212.974L339.744 213.638L345.328 204.54L350.905 202.705L359.333 205.67L368.962 199.027L376.601 214.581L372.257 222.529L387.251 225.125L398.438 217.412L403.903 205.828L413.812 208.772L414.163 221.982L407.268 239.298L398.77 243.523L401.678 249.583L410.56 254.127L407.375 261.682L405.768 263.045L411.423 264.829L415.361 270.918L419.541 285.342L424.594 289.091L431.508 298.961L445.291 315.153L444.212 332.08L437.501 332.679L437.182 347.908L434.394 356.239L422.188 373.606L412.337 378.614L403.99 376.827L401.134 369.6L394.693 369.162L389.64 372.872L396.606 385.873L386.755 390.107L375.854 388.929L367.729 391.502L359.063 404.792L365.5 406.051L371.954 399.443L378.401 413.159L374.559 421.21L370.65 427.734L367.996 435.74L353.385 433.776C352.026 436.42 351.971 440.406 352.094 441.91L352.751 448.918L344.162 453.597L324.135 470.533L315.253 482.387L319.021 492.177L316.402 494.006L316.029 503.783L313.636 519.193L302.23 517.431C301.309 521.653 300.632 526.116 300.861 527.543C301.608 528.477 302.684 530.937 300.42 538.811C303.399 541.413 306.551 543.606 307.569 543.738C312.271 544.341 312.264 552.131 311.839 556.72L311.765 557.512L306.262 564.046L293.657 570.419L292.346 578.203L287.503 586.328L284.083 595.264L297.805 604.117L324.627 593.657L343.727 626.962L345.36 643L337.435 650.961L342.607 662.193L352.715 672.254L355.749 670.911L354.931 658.966L365.71 657.501L371.88 670.792L380.201 677.174V687.747H384.249L386.681 675.825L398.647 676.057L404.837 669.262L404.116 657.266L405.41 634.717L399.72 615.092L392.764 600.597L394.786 586.55L402.225 582.396L409.703 582.357L412.843 577.897L427.64 576.927L436.194 584.969L442.924 586.186L446.969 583.784L445.687 576.898L442.38 571.826L446.621 561.669L452.415 564.126L467.753 553.667L469.885 550.791L469.264 542.962L475.656 532.019L485.211 537.507L492.286 532.805L500.904 515.216L497.2 511.586L502.701 504.662L499.606 500.859L498.089 499.767L494.763 505.632L484.354 507.954L490.789 472.346L498.917 461.271L496.733 452.634L499.435 442.944L511.647 444.944L514.194 442.822L511.135 438.178L509.238 421.38L517.759 420.685L518.149 416.572H508.91L501.429 405.813H497.97L489.5 399.63L485.768 389.534L494.247 380.697L503.615 378.971L509.988 369.874L524.454 366.315L525.881 359.755L526.345 359.25C532.937 352.062 534.611 351.598 535.162 351.444C537.027 350.925 540.482 351.292 541.493 351.418L542.108 351.495L548.736 356.036L557.251 351.759L562.397 345.109C559.576 338.124 556.256 330.453 555.412 329.345C553.653 327.255 552.465 320.328 551.914 316.387L551.795 315.524L557.949 304.816L551.589 291.377L556.681 280.389L577.41 277.349L589.293 273.028L595.953 265.962L598.761 246.985L594.439 227.26L590.482 191.784L585.078 188.026L568.908 162.257L575.723 148.467H585.374L594.829 139.807L611.623 139.791L621.059 143.018L638.507 136.065L642.519 125.815L648.735 121.487L642.4 116.576L630.788 118.75L623.455 113.027L622.872 113.285L616.654 103.765L602.712 94.8576L597.447 85.9114L593.647 77.8637H585.996L573.897 70.9786L556.262 68.2251L556.191 67.8709L530.628 58.2678L514.416 38.8425L511.969 26.3313L514.011 17.6879L514.201 10.2134L511.364 8.91563L500.868 16.0359L481.427 26.8917L479.121 41.2127L465.676 36.0279L455.39 24.5248L435.079 -6.19758L420.958 -18.2031L409.304 -17.5172V-16.8441L403.636 -17.047L402.834 -15.6075L401.939 -12.2357L400.599 -11.1022L398.226 -12.3227L385.592 -12.4837L375.925 -13.3178L374.978 -15.2436L372.749 -18.0034L371.155 -20.3382C371.155 -20.3382 359.266 -21.6135 359.349 -21.826C359.433 -22.0386 357.356 -20.8019 357.356 -20.8019L355.868 -19.0662L354.065 -17.0502V-10.8929L348.758 5.66627L347.06 18.1903L349.076 26.8949L353.852 27.7451L357.356 27.2137L361.072 27.7451L361.816 28.7016L359.353 33.5837L364.727 39.1195C364.727 39.1195 362.186 42.182 361.993 42.2883C361.803 42.3946 355.34 47.5955 355.34 47.5955L350.245 46.2139L349.927 43.3478L352.368 39.7378C352.368 39.7378 353.746 38.5688 353.64 38.1469C353.533 37.7218 352.155 34.6432 352.155 34.6432L347.485 33.5804L344.088 32.624C344.088 32.624 336.659 26.7854 336.552 26.0415C336.446 25.2976 334.536 23.388 334.536 23.388L329.442 23.7068L323.603 25.7227L322.859 28.8014C322.859 28.8014 321.69 32.9396 322.009 33.3647C322.328 33.7897 322.647 35.5932 322.647 35.5932L323.284 38.4593L328.273 39.8376L330.076 41.9598C330.076 41.9598 329.864 47.1607 330.076 47.5858C330.289 48.0109 328.907 51.9365 328.907 51.9365L325.403 54.9089L324.66 56.606L324.553 58.0939L320.731 57.775L319.668 55.5466L313.829 52.7867L309.285 52.7899C309.285 52.7899 308.522 50.6645 308.522 50.3456C308.522 50.0268 307.991 47.9046 307.991 47.9046L308.416 46.1012L309.479 44.2978L312.239 42.9195L315.849 41.5412L316.699 39.5252L316.805 36.8716C316.805 36.8716 316.167 34.0055 316.167 33.6867C316.167 33.3679 316.486 31.3519 316.486 31.3519L313.939 27.7419L309.765 24.2736L309.479 21.7971L307.25 20.525L304.597 16.1743L299.383 6.78693L280.264 5.39895L278.235 6.14611L276.631 7.4278L268.728 8.2812L265.524 10.4163L256.977 13.1955H251.956H248.752L229.353 14.0489C229.353 14.0489 223.865 14.0489 223.971 13.7269C224.078 13.4081 222.368 14.1552 222.368 14.1552L220.658 15.8652L217.666 16.9343L215.956 18.6444L208.372 29.8609L209.335 34.7752L211.898 35.6286L212.327 36.1632L211.579 37.4449L208.481 38.192L206.453 38.8328L204.102 41.8246L201.645 44.2817V46.3105L201.857 54.9637L199.722 65.7519L200.363 69.8096L203.355 71.1975L213.293 69.5036L225.681 70.9818L226 71.9446L223.437 74.2956L222.368 78.7815L222.474 88.1818L217.775 102.709L217.669 105.807C217.669 105.807 219.959 106.937 219.981 107.024C220.007 107.108 221.369 125.28 221.369 125.28L219.846 130.658L215.531 137.801L209.657 146.184L209.122 151.89L207.306 153.127L206.913 183.376L205.19 185.749L202.926 184.316H196.837L195.233 184.422L194.057 182.822L192.882 181.733H177.286L174.722 181.238L172.159 183.141L173.122 185.968L173.444 194.46L171.84 198.734L169.811 200.869L169.489 204.286L170.935 210.482L173.035 213.357Z" fill="#071943" fill-opacity="0.05" stroke="black" stroke-opacity="0.2" stroke-width="1.85268" mask="url(#path-14-inside-6_217_412)"/>
<mask id="path-15-inside-7_217_412" fill="white">
<path d="M252.142 736.999L257.42 744.036L269.735 746.738L278.594 745.292L281.737 746.673L290.786 746.609L293.739 747.613L297.446 747.929L303.101 752.454L306.621 754.463L310.636 754.273L312.214 756.724L316.14 756.553C318.903 755.5 321.067 754.682 322.265 754.228L332.831 727.267L343.88 702.657L334.354 672.669L337.752 663.752L331.359 649.869L340.074 641.113L338.795 628.54L322.407 599.966L297.24 609.779L277.876 597.287L283.035 583.906L287.501 576.409L289.079 567.035L303.049 559.972L306.846 555.464C307.03 552.64 306.824 549.693 306.373 548.659C302.827 547.79 297.433 542.988 295.797 541.471L294.618 540.38L295.101 538.847C296.161 535.472 296.873 531.71 296.695 530.503C295.852 529.501 294.692 526.706 297.819 513.944L298.373 511.683L309.397 513.386L310.991 503.136L311.371 492.937L297.04 489.317L295.108 468.259L281.589 458.904L277.982 459.964L275.209 469.77L272.346 474.7L262.759 484.358V488.107L240.12 493.433L232.971 506.756L221.365 508.862L202.867 513.49L196.458 532.084L182.173 548.559L156.391 551.165L140.846 547.413L140.009 550.205L138.575 551.161L135.419 550.778L133.027 550.205L130.444 550.492C130.444 550.492 129.967 556.707 130.347 556.804C130.727 556.9 129.774 558.047 129.774 558.047L127.765 559.959L124.705 560.916H123.079L119.54 563.595L118.297 566.465L119.73 570.004L119.92 573.35L116.574 575.742L115.485 585.062L114.184 586.933L112.271 587.793C112.271 587.793 112.271 589.706 112.271 589.993C112.271 590.279 113.418 593.532 113.611 593.818C113.801 594.105 119.208 599.676 119.208 599.676L123.079 609.653L124.225 612.751L123.079 616.071L129.201 622.199L137.329 623.117L138.572 626.621L141.538 629.011L147.753 626.621L153.012 629.587L154.735 634.559L152.024 642.803L149.19 645.367L145.844 647.756L145.174 649.859L145.148 653.882L143.738 657.891L142.282 659.971L141.052 662.348L140.388 661.813L138.669 663.462L138.572 680.34L140.205 682.366L141.822 683.908H143.638L146.507 683.525L151.289 687.47L157.888 692.323L160.184 699.018C160.184 699.018 161.237 706.477 161.524 706.866C161.81 707.256 163.437 709.346 163.437 709.346C163.437 709.346 168.122 708.389 168.409 707.932C168.696 707.475 174.959 709.017 174.959 709.017L178.122 719.938L177.4 721.071H175.774L174.148 720.533L172.618 721.586L171.472 723.403L174.244 729.045C174.244 729.045 182.376 730.062 182.913 730.072C183.451 730.082 213.178 733.289 213.178 733.289L222.856 733.856L226.353 734.755L231.399 735.051L233.409 733.293L235.483 729.963L235.106 727.702L241.263 727.638L246.622 726.945L249.875 729.457L248.995 732.913L252.142 736.999Z"/>
</mask>
<path d="M252.142 736.999L257.42 744.036L269.735 746.738L278.594 745.292L281.737 746.673L290.786 746.609L293.739 747.613L297.446 747.929L303.101 752.454L306.621 754.463L310.636 754.273L312.214 756.724L316.14 756.553C318.903 755.5 321.067 754.682 322.265 754.228L332.831 727.267L343.88 702.657L334.354 672.669L337.752 663.752L331.359 649.869L340.074 641.113L338.795 628.54L322.407 599.966L297.24 609.779L277.876 597.287L283.035 583.906L287.501 576.409L289.079 567.035L303.049 559.972L306.846 555.464C307.03 552.64 306.824 549.693 306.373 548.659C302.827 547.79 297.433 542.988 295.797 541.471L294.618 540.38L295.101 538.847C296.161 535.472 296.873 531.71 296.695 530.503C295.852 529.501 294.692 526.706 297.819 513.944L298.373 511.683L309.397 513.386L310.991 503.136L311.371 492.937L297.04 489.317L295.108 468.259L281.589 458.904L277.982 459.964L275.209 469.77L272.346 474.7L262.759 484.358V488.107L240.12 493.433L232.971 506.756L221.365 508.862L202.867 513.49L196.458 532.084L182.173 548.559L156.391 551.165L140.846 547.413L140.009 550.205L138.575 551.161L135.419 550.778L133.027 550.205L130.444 550.492C130.444 550.492 129.967 556.707 130.347 556.804C130.727 556.9 129.774 558.047 129.774 558.047L127.765 559.959L124.705 560.916H123.079L119.54 563.595L118.297 566.465L119.73 570.004L119.92 573.35L116.574 575.742L115.485 585.062L114.184 586.933L112.271 587.793C112.271 587.793 112.271 589.706 112.271 589.993C112.271 590.279 113.418 593.532 113.611 593.818C113.801 594.105 119.208 599.676 119.208 599.676L123.079 609.653L124.225 612.751L123.079 616.071L129.201 622.199L137.329 623.117L138.572 626.621L141.538 629.011L147.753 626.621L153.012 629.587L154.735 634.559L152.024 642.803L149.19 645.367L145.844 647.756L145.174 649.859L145.148 653.882L143.738 657.891L142.282 659.971L141.052 662.348L140.388 661.813L138.669 663.462L138.572 680.34L140.205 682.366L141.822 683.908H143.638L146.507 683.525L151.289 687.47L157.888 692.323L160.184 699.018C160.184 699.018 161.237 706.477 161.524 706.866C161.81 707.256 163.437 709.346 163.437 709.346C163.437 709.346 168.122 708.389 168.409 707.932C168.696 707.475 174.959 709.017 174.959 709.017L178.122 719.938L177.4 721.071H175.774L174.148 720.533L172.618 721.586L171.472 723.403L174.244 729.045C174.244 729.045 182.376 730.062 182.913 730.072C183.451 730.082 213.178 733.289 213.178 733.289L222.856 733.856L226.353 734.755L231.399 735.051L233.409 733.293L235.483 729.963L235.106 727.702L241.263 727.638L246.622 726.945L249.875 729.457L248.995 732.913L252.142 736.999Z" fill="#071943" fill-opacity="0.05" stroke="black" stroke-opacity="0.2" stroke-width="1.85268" mask="url(#path-15-inside-7_217_412)"/>
</g>
<defs>
<radialGradient id="paint0_radial_217_412" cx="0" cy="0" r="1" gradientUnits="userSpaceOnUse" gradientTransform="translate(93 389) scale(567 358.756)">
<stop offset="0.602608" stop-color="white"/>
<stop offset="1" stop-color="white" stop-opacity="0"/>
</radialGradient>
</defs>
</svg>
