<svg width="86" height="86" viewBox="0 0 86 86" fill="none" xmlns="http://www.w3.org/2000/svg">
<path d="M47.0712 10C46.9049 10.0077 46.7427 10.0537 46.5972 10.1343C46.4516 10.215 46.3266 10.3281 46.2319 10.4649L21.1972 46.3816C21.0828 46.5449 21.0154 46.7365 21.0023 46.9355C20.9893 47.1345 21.0311 47.3333 21.1231 47.5102C21.2152 47.6871 21.354 47.8354 21.5245 47.9389C21.6949 48.0424 21.8905 48.0971 22.09 48.0972H39.4106L37.3329 74.1398C37.2507 75.2383 38.67 75.7444 39.3077 74.8475L64.3466 38.9308C64.4609 38.7675 64.5283 38.5759 64.5414 38.3769C64.5545 38.1779 64.5127 37.9791 64.4206 37.8022C64.3286 37.6253 64.1897 37.477 64.0193 37.3735C63.8488 37.27 63.6532 37.2153 63.4538 37.2152H46.1331L48.2108 11.1725C48.222 11.0187 48.2005 10.8642 48.1476 10.7193C48.0947 10.5743 48.0116 10.4423 47.9039 10.3319C47.7962 10.2214 47.6663 10.1351 47.5227 10.0786C47.3792 10.0221 47.2253 9.9926 47.0712 10Z" fill="#FED63C"/>
</svg>
