<svg width="95" height="95" viewBox="0 0 95 95" fill="none" xmlns="http://www.w3.org/2000/svg">
<mask id="mask0_217_341" style="mask-type:luminance" maskUnits="userSpaceOnUse" x="0" y="0" width="95" height="95">
<path d="M3.16667 2.53333C2.81688 2.53333 2.53333 2.81689 2.53333 3.16666V91.8333C2.53333 92.1831 2.81689 92.4667 3.16666 92.4667H91.8333C92.1831 92.4667 92.4667 92.1831 92.4667 91.8333V3.16666C92.4667 2.81689 92.1831 2.53333 91.8333 2.53333H3.16667Z" fill="white" stroke="white" stroke-width="5.06667"/>
</mask>
<g mask="url(#mask0_217_341)">
<path d="M81.084 47.9639V18.7402C81.084 15.6659 83.5761 13.1738 86.6504 13.1738C89.7247 13.1738 92.2168 15.6659 92.2168 18.7402V52.7358C92.2168 53.3161 92.0573 53.8853 91.7558 54.3811L75.9786 80.3259C75.677 80.8217 75.5176 81.3909 75.5176 81.9712V89.0501C75.5176 90.799 74.0998 92.2168 72.3509 92.2168H22.6491C20.9002 92.2168 19.4824 90.799 19.4824 89.0501V81.9712C19.4824 81.3909 19.3229 80.8217 19.0214 80.3259L3.2442 54.3811C2.94267 53.8853 2.7832 53.3161 2.7832 52.7358V18.7402C2.7832 15.6659 5.27528 13.1738 8.34961 13.1738C11.4239 13.1738 13.916 15.6659 13.916 18.7402V47.9639" stroke="#F7C60B" stroke-width="5.06667" stroke-miterlimit="10"/>
<path d="M47.5 72.6416C47.5 69.5676 46.2609 66.778 44.2468 64.7633L23.4184 43.9351C21.2446 41.7612 17.7203 41.7612 15.5464 43.9351C13.3725 46.109 13.3725 49.6332 15.5464 51.8071L36.3664 72.6273" stroke="#F7C60B" stroke-width="5.06667" stroke-miterlimit="10"/>
<path d="M58.6326 72.6281L79.4536 51.8071C81.6275 49.6332 81.6275 46.1088 79.4536 43.9349C77.2797 41.7612 73.7554 41.7612 71.5816 43.9349L50.7532 64.7633C48.7391 66.778 47.5 69.5676 47.5 72.6416V92.2168" stroke="#F7C60B" stroke-width="5.06667" stroke-miterlimit="10"/>
<path d="M67.9102 18.0104C67.9102 16.2615 66.4924 14.8438 64.7435 14.8438H59.0163C57.2674 14.8438 55.8496 13.426 55.8496 11.6771V5.94987C55.8496 4.20097 54.4318 2.7832 52.6829 2.7832H42.3171C40.5682 2.7832 39.1504 4.20097 39.1504 5.94987V11.6771C39.1504 13.426 37.7326 14.8438 35.9837 14.8438H30.2565C28.5076 14.8438 27.0898 16.2615 27.0898 18.0104V28.3763C27.0898 30.1252 28.5076 31.543 30.2565 31.543H35.9837C37.7326 31.543 39.1504 32.9607 39.1504 34.7096V40.4368C39.1504 42.1858 40.5682 43.6035 42.3171 43.6035H52.6829C54.4318 43.6035 55.8496 42.1858 55.8496 40.4368V34.7096C55.8496 32.9607 57.2674 31.543 59.0163 31.543H64.7435C66.4924 31.543 67.9102 30.1252 67.9102 28.3763V18.0104Z" stroke="#F7C60B" stroke-width="5.06667" stroke-miterlimit="10"/>
</g>
</svg>
