<svg width="200" height="200" viewBox="0 0 200 200" fill="none" xmlns="http://www.w3.org/2000/svg">
<path d="M134.792 100.001H182.708L175.917 75.0015H130.625L134.792 100.001ZM79.2084 66.6681H120.792L115.917 37.5015H84.0834L79.2084 66.6681ZM69.3751 75.0015H24.0834L17.2501 100.001H65.2084L69.3751 75.0015ZM129.167 66.6681H173.625L166.667 40.5848C166.423 39.6758 165.878 38.8762 165.121 38.3164C164.365 37.7565 163.441 37.4692 162.5 37.5015H124.375L129.167 66.6681ZM126.333 100.001L122.167 75.0015H77.8334L73.6668 100.001H126.333ZM132.583 137.501L127.75 108.335H72.2501L67.4168 137.501H95.8334V154.168H83.3334C82.2284 154.168 81.1685 154.607 80.3872 155.389C79.6058 156.17 79.1668 157.23 79.1668 158.335C79.1668 159.44 79.6058 160.5 80.3872 161.281C81.1685 162.062 82.2284 162.501 83.3334 162.501H116.667C117.772 162.501 118.832 162.062 119.613 161.281C120.394 160.5 120.833 159.44 120.833 158.335C120.833 157.23 120.394 156.17 119.613 155.389C118.832 154.607 117.772 154.168 116.667 154.168H104.167V137.501H132.583ZM141.042 137.501H187.5C188.152 137.524 188.799 137.393 189.391 137.12C189.983 136.847 190.503 136.438 190.908 135.928C191.313 135.417 191.593 134.818 191.725 134.18C191.857 133.541 191.837 132.881 191.667 132.251L185 108.335H136.167L141.042 137.501ZM12.5001 137.501H58.9584L63.8334 108.335H15.0001L8.33342 132.251C8.16353 132.881 8.1437 133.541 8.27552 134.18C8.40734 134.818 8.68714 135.417 9.09242 135.928C9.49769 136.438 10.0171 136.847 10.609 137.12C11.2008 137.393 11.8486 137.524 12.5001 137.501ZM75.6251 37.5015H37.5001C36.5594 37.4692 35.6355 37.7565 34.8789 38.3164C34.1223 38.8762 33.5776 39.6758 33.3334 40.5848L26.3751 66.6681H70.8334L75.6251 37.5015Z" fill="#FED63C"/>
</svg>
