<svg width="55" height="55" viewBox="0 0 55 55" fill="none" xmlns="http://www.w3.org/2000/svg">
<g clip-path="url(#clip0_217_38)">
<path d="M54.9102 1.81459C54.8038 1.48934 54.6061 1.20158 54.3406 0.985683C54.0751 0.769786 53.753 0.634878 53.4129 0.597073C53.3648 0.591916 49.3645 0.141389 43.5727 0.141174C39.7893 0.141282 35.2415 0.333137 30.5213 0.974231C26.981 1.45559 23.3432 2.18906 19.8531 3.29529C17.2357 4.12534 14.7006 5.16529 12.355 6.4752C10.5963 7.45778 8.94405 8.59291 7.45143 9.90743C5.21297 11.8773 3.33427 14.2589 2.02952 17.0912C0.722844 19.9223 -0.00150157 23.1914 2.33715e-06 26.8907C2.33715e-06 29.3999 0.330002 32.1083 1.02502 35.0323C1.66751 37.7352 2.62228 40.6235 3.92015 43.7159C2.57286 46.5043 1.39799 49.4451 0.44011 52.5425C0.148459 53.4853 0.67633 54.4861 1.61928 54.7775C2.56201 55.0692 3.56286 54.5413 3.85451 53.5984C4.65126 51.0227 5.60785 48.5606 6.69604 46.207C9.4021 47.5567 12.1482 48.6227 14.8798 49.3852C18.1737 50.3045 21.447 50.7847 24.6026 50.7849C27.5879 50.7849 30.4696 50.3542 33.1494 49.4502C35.1587 48.7724 37.0538 47.8273 38.7815 46.6041C41.3743 44.7707 43.5831 42.3088 45.2467 39.243C46.9125 36.1767 48.0372 32.5146 48.5257 28.2601C49.7795 17.334 51.3782 11.0333 52.6151 7.54673C53.2328 5.80327 53.7587 4.7644 54.0947 4.2C54.2628 3.9177 54.383 3.75388 54.4425 3.67815C54.4574 3.65924 54.4686 3.6457 54.4757 3.63743L54.4849 3.62669L54.4846 3.62637C54.7156 3.39293 54.8776 3.10018 54.9527 2.78046C55.0278 2.46074 55.0131 2.12648 54.9102 1.81459ZM6.12208 39.5479C5.43652 37.6646 4.90091 35.8852 4.50184 34.2061C3.86278 31.5169 3.57382 29.0859 3.57382 26.8907C3.57425 24.3318 3.96441 22.094 4.65803 20.1135C5.26582 18.3804 6.10693 16.8412 7.14721 15.4551C8.05761 14.2429 9.12173 13.1486 10.318 12.1589C12.4101 10.4272 14.9102 9.01809 17.6506 7.89048C21.7599 6.1974 26.4029 5.14359 30.9364 4.52463C35.4702 3.90438 39.8933 3.71478 43.5728 3.71499C44.963 3.71499 46.2468 3.74195 47.3914 3.78245C42.6799 6.00619 36.2624 9.44595 29.5882 14.2825C29.5967 14.1841 29.6058 14.0846 29.6162 13.9837C29.7264 12.9046 29.9477 11.6783 30.3539 10.4361C30.6602 9.49794 30.1482 8.48903 29.2102 8.18267C28.272 7.8763 27.2631 8.38838 26.9568 9.32639C26.4554 10.8621 26.1928 12.335 26.0611 13.6197C25.9834 14.3788 25.9444 15.1413 25.9442 15.9044C25.9442 16.2315 25.9515 16.5289 25.9626 16.7923C25.966 16.8742 25.9699 16.9518 25.9741 17.0269C25.1057 17.7171 24.2492 18.4223 23.4052 19.1421C20.2491 21.836 17.1369 24.8554 14.223 28.2168C14.2046 27.8504 14.1953 27.4836 14.1949 27.1167C14.1949 26.2778 14.2411 25.457 14.3246 24.6591C14.5666 22.3414 15.1239 20.2172 15.7627 18.4193C16.0929 17.4893 15.6067 16.4677 14.6768 16.1375C13.7468 15.8073 12.7252 16.2934 12.395 17.2233C11.6798 19.2381 11.0481 21.6315 10.7702 24.2875C10.6715 25.2273 10.6218 26.1716 10.6212 27.1166C10.6211 28.7043 10.7659 30.3615 11.1022 32.0595C10.7463 32.5267 10.396 32.9982 10.0515 33.4737C8.65874 35.4015 7.34175 37.4259 6.12208 39.5479ZM48.1841 9.77197C47.0913 13.7547 45.9324 19.518 44.9748 27.8526C44.5795 31.2928 43.7396 34.2086 42.5631 36.6455C41.6801 38.4737 40.6083 40.0343 39.3796 41.356C37.5358 43.337 35.337 44.7881 32.8471 45.7592C30.3583 46.7286 27.5753 47.2114 24.6023 47.2114C21.8103 47.2116 18.8537 46.7847 15.8403 45.9433C13.3413 45.2458 10.8037 44.2627 8.28953 43.0086C9.69354 40.3837 11.26 37.9043 12.9484 35.566C13.201 35.2169 13.4569 34.8702 13.7161 34.5259C14.1381 34.6761 14.7863 34.8936 15.6214 35.1339C17.1349 35.5692 19.2584 36.0788 21.7505 36.3875C23.1173 36.5565 24.5953 36.6648 26.1451 36.6649C27.4208 36.6649 28.7451 36.5914 30.0952 36.4167C31.0739 36.2899 31.7646 35.3938 31.6379 34.4151C31.5111 33.4364 30.615 32.7456 29.6363 32.8724C28.455 33.0254 27.2833 33.0911 26.1449 33.0911C24.7621 33.0911 23.4288 32.9941 22.189 32.8407C19.9285 32.5613 17.9798 32.0941 16.6094 31.6996C16.4332 31.6488 16.2574 31.5967 16.0821 31.5431C19.8 27.1014 23.9173 23.2407 28.0598 19.9329C28.2099 19.9954 28.3609 20.0559 28.5128 20.1141C29.4557 20.4757 30.801 20.9011 32.4717 21.1847C33.7105 21.3945 34.9646 21.4998 36.221 21.4994C36.9097 21.4994 37.6279 21.468 38.3723 21.3974C39.3548 21.3042 40.0757 20.4322 39.9825 19.4497C39.8894 18.4672 39.0173 17.7463 38.0349 17.8395C37.4063 17.899 36.8009 17.9256 36.2211 17.9256C35.0614 17.9256 34.0034 17.8197 33.0697 17.6612C32.5376 17.571 32.0097 17.4571 31.4877 17.32C31.8442 17.0601 32.2024 16.8025 32.5624 16.5474C38.7492 12.164 44.677 9.00756 49.0381 6.95645C48.7614 7.77908 48.4753 8.71193 48.1841 9.77197Z" fill="#F7C60B"/>
</g>
<defs>
<clipPath id="clip0_217_38">
<rect width="55" height="55" fill="white"/>
</clipPath>
</defs>
</svg>
