<svg width="95" height="95" viewBox="0 0 95 95" fill="none" xmlns="http://www.w3.org/2000/svg">
<g clip-path="url(#clip0_217_288)">
<path d="M94.8449 3.13459C94.6612 2.57279 94.3196 2.07575 93.861 1.70284C93.4024 1.32992 92.8462 1.0969 92.2587 1.0316C92.1756 1.0227 85.266 0.244512 75.2619 0.244141C68.7269 0.244326 60.8716 0.575713 52.7187 1.68306C46.6036 2.51449 40.3201 3.78141 34.2917 5.69217C29.7708 7.12589 25.3919 8.92217 21.3405 11.1847C18.3027 12.8819 15.4488 14.8426 12.8706 17.1131C9.00422 20.5157 5.75919 24.6293 3.50554 29.5214C1.24855 34.4115 -0.00259362 40.0582 4.03689e-06 46.4479C4.03689e-06 50.7819 0.570004 55.4601 1.77049 60.5107C2.88025 65.1792 4.52939 70.1682 6.77117 75.5096C4.44404 80.326 2.41471 85.4055 0.76019 90.7556C0.25643 92.3839 1.16821 94.1127 2.79694 94.6161C4.4253 95.1198 6.15404 94.208 6.6578 92.5793C8.034 88.1305 9.68629 83.8777 11.5659 79.8124C16.24 82.1438 20.9833 83.985 25.7014 85.302C31.391 86.8899 37.0448 87.7193 42.4954 87.7197C47.6518 87.7197 52.6293 86.9758 57.2581 85.4142C60.7288 84.2436 64.002 82.6112 66.9863 80.4984C71.4647 77.3315 75.2799 73.0791 78.1535 67.7838C81.0307 62.4873 82.9734 56.1618 83.8171 48.8133C85.9828 29.9409 88.7441 19.0579 90.8807 13.0356C91.9476 10.0241 92.856 8.22971 93.4364 7.25484C93.7266 6.76723 93.9342 6.48427 94.037 6.35346C94.0628 6.3208 94.0821 6.29742 94.0943 6.28313L94.1103 6.26458L94.1097 6.26402C94.5088 5.86081 94.7886 5.35515 94.9183 4.80291C95.0481 4.25066 95.0226 3.6733 94.8449 3.13459ZM10.5745 68.3103C9.39035 65.0573 8.46521 61.9838 7.7759 59.0837C6.67208 54.4387 6.17296 50.2396 6.17296 46.4479C6.17371 42.028 6.84761 38.1627 8.04569 34.7418C9.09551 31.7483 10.5483 29.0896 12.3452 26.6955C13.9177 24.6016 15.7557 22.7115 17.822 21.002C21.4357 18.011 25.7539 15.577 30.4874 13.6293C37.5853 10.7049 45.605 8.88469 53.4356 7.81557C61.2667 6.74422 68.9065 6.41673 75.2621 6.4171C77.6634 6.4171 79.8809 6.46367 81.8579 6.53362C73.7198 10.3746 62.6351 16.316 51.1068 24.6701C51.1215 24.5001 51.1373 24.3283 51.1553 24.1539C51.3456 22.2901 51.7279 20.1719 52.4294 18.0262C52.9586 16.4058 52.0741 14.6632 50.4539 14.134C48.8335 13.6048 47.0909 14.4893 46.5617 16.1095C45.6957 18.7621 45.2421 21.3061 45.0146 23.5253C44.8804 24.8364 44.8131 26.1535 44.8127 27.4715C44.8127 28.0365 44.8253 28.5502 44.8445 29.0052C44.8504 29.1466 44.8571 29.2807 44.8643 29.4104C43.3643 30.6026 41.8851 31.8206 40.4271 33.0639C34.9758 37.717 29.6001 42.9324 24.567 48.7385C24.5353 48.1056 24.5191 47.472 24.5185 46.8383C24.5185 45.3892 24.5983 43.9714 24.7425 42.5934C25.1605 38.59 26.1231 34.921 27.2264 31.8155C27.7968 30.209 26.957 28.4445 25.3509 27.8741C23.7444 27.3037 21.9799 28.1435 21.4095 29.7496C20.1741 33.2297 19.0831 37.3637 18.6031 41.9514C18.4326 43.5747 18.3467 45.2058 18.3458 46.8381C18.3456 49.5805 18.5957 52.4429 19.1765 55.3759C18.5618 56.1828 17.9568 56.9971 17.3616 57.8186C14.956 61.1484 12.6812 64.6451 10.5745 68.3103ZM83.2271 16.8792C81.3395 23.7585 79.3378 33.7133 77.6838 48.1093C77.001 54.0514 75.5502 59.0879 73.5181 63.2971C71.9929 66.4549 70.1415 69.1505 68.0193 71.4335C64.8345 74.8551 61.0366 77.3615 56.736 79.0388C52.437 80.7134 47.6301 81.5473 42.4949 81.5473C37.6723 81.5476 32.5655 80.8103 27.3606 79.3569C23.044 78.1521 18.661 76.454 14.3183 74.2879C16.7434 69.7539 19.449 65.4713 22.3655 61.4325C22.8018 60.8295 23.2438 60.2307 23.6914 59.636C24.4204 59.8954 25.54 60.2712 26.9824 60.6862C29.5966 61.4381 33.2645 62.3183 37.569 62.8514C39.9299 63.1434 42.4828 63.3305 45.1597 63.3306C47.3633 63.3306 49.6507 63.2037 51.9826 62.9018C53.6731 62.6829 54.8662 61.1351 54.6473 59.4445C54.4283 57.754 52.8805 56.561 51.19 56.7799C49.1495 57.0441 47.1258 57.1577 45.1593 57.1577C42.771 57.1577 40.468 56.9901 38.3264 56.7252C34.4219 56.2426 31.0561 55.4356 28.6889 54.7541C28.3846 54.6665 28.081 54.5764 27.7782 54.4838C34.2 46.8118 41.3116 40.1434 48.4669 34.4299C48.7262 34.5379 48.9871 34.6422 49.2493 34.7429C50.8781 35.3674 53.2017 36.1022 56.0875 36.592C58.2272 36.9544 60.3935 37.1362 62.5636 37.1357C63.7532 37.1357 64.9937 37.0813 66.2794 36.9594C67.9764 36.7985 69.2216 35.2923 69.0607 33.5953C68.8999 31.8983 67.3936 30.653 65.6966 30.8139C64.6109 30.9167 63.5652 30.9627 62.5638 30.9627C60.5606 30.9627 58.7332 30.7798 57.1204 30.5061C56.2013 30.3502 55.2895 30.1535 54.3879 29.9166C55.0036 29.4677 55.6224 29.0228 56.2441 28.5822C66.9305 21.0109 77.1693 15.5588 84.7021 12.016C84.2242 13.4369 83.7301 15.0482 83.2271 16.8792Z" fill="#F7C60B"/>
</g>
<defs>
<clipPath id="clip0_217_288">
<rect width="95" height="95" fill="white"/>
</clipPath>
</defs>
</svg>
