<svg width="24" height="24" viewBox="0 0 24 24" fill="none" xmlns="http://www.w3.org/2000/svg">
<path d="M2.01 6.8735C2.0732 6.09076 2.42878 5.3605 3.00599 4.82805C3.5832 4.29559 4.33971 3.99997 5.125 4H18.875C19.6673 3.99997 20.43 4.30088 21.0089 4.84187C21.5877 5.38285 21.9395 6.12351 21.993 6.914L12.001 12.175L2.01 6.8735ZM2 8.2835V16.875C2 17.7038 2.32924 18.4987 2.91529 19.0847C3.50134 19.6708 4.2962 20 5.125 20H18.875C19.7038 20 20.4987 19.6708 21.0847 19.0847C21.6708 18.4987 22 17.7038 22 16.875V8.323L12.291 13.435C12.2009 13.4824 12.1007 13.5071 11.9989 13.5069C11.8971 13.5067 11.7969 13.4817 11.707 13.434L2 8.2835Z" fill="#071943"/>
</svg>
