<svg width="95" height="95" viewBox="0 0 95 95" fill="none" xmlns="http://www.w3.org/2000/svg">
<g clip-path="url(#clip0_217_295)">
<path d="M64.3386 30.6614C60.0661 26.3889 54.0344 23.6243 47.5 23.6243C40.9656 23.6243 34.9339 26.2632 30.6614 30.6614C26.3889 34.9339 23.6243 40.9656 23.6243 47.5C23.6243 54.0344 26.3889 60.0661 30.6614 64.3386C34.9339 68.6111 40.9656 71.3756 47.5 71.3756C54.0344 71.3756 60.0661 68.7368 64.3386 64.3386C68.6111 60.0661 71.3756 54.0344 71.3756 47.5C71.3756 40.9656 68.7368 34.9339 64.3386 30.6614ZM59.8148 59.8148C56.6733 62.9563 52.2751 64.8413 47.5 64.8413C42.7249 64.8413 38.3267 62.9563 35.1852 59.8148C32.0436 56.6733 30.1587 52.2751 30.1587 47.5C30.1587 42.7249 32.0436 38.3267 35.1852 35.1852C38.3267 32.0436 42.7249 30.1587 47.5 30.1587C52.2751 30.1587 56.6733 32.0436 59.8148 35.1852C62.9563 38.3267 64.8413 42.7249 64.8413 47.5C64.8413 52.2751 62.9563 56.6733 59.8148 59.8148ZM91.7328 44.2328H82.0569C80.2976 44.2328 78.7897 45.7407 78.7897 47.5C78.7897 49.2593 80.2976 50.7672 82.0569 50.7672H91.7328C93.4921 50.7672 95 49.2593 95 47.5C95 45.7407 93.4921 44.2328 91.7328 44.2328ZM47.5 78.7897C45.7407 78.7897 44.2328 80.2976 44.2328 82.0569V91.7328C44.2328 93.4921 45.7407 95 47.5 95C49.2593 95 50.7672 93.4921 50.7672 91.7328V82.0569C50.7672 80.2976 49.2593 78.7897 47.5 78.7897ZM81.0516 76.5278L74.1402 69.6164C73.0093 68.3598 70.873 68.3598 69.6164 69.6164C68.3598 70.873 68.3598 72.8836 69.6164 74.1402L76.5278 81.0516C77.7844 82.3082 79.795 82.3082 81.0516 81.0516C82.3082 79.795 82.3082 77.7844 81.0516 76.5278ZM47.5 0C45.7407 0 44.2328 1.50794 44.2328 3.2672V12.9431C44.2328 14.7024 45.7407 16.2103 47.5 16.2103C49.2593 16.2103 50.7672 14.7024 50.7672 12.9431V3.2672C50.7672 1.50794 49.2593 0 47.5 0ZM81.1772 13.9484C79.9206 12.6918 77.91 12.6918 76.6534 13.9484L69.7421 20.8598C68.4854 22.1164 68.4854 24.127 69.7421 25.3836C70.873 26.6402 73.0092 26.6402 74.2659 25.3836L81.1772 18.4722C82.4339 17.2156 82.4339 15.205 81.1772 13.9484ZM12.9431 44.2328H3.2672C1.50794 44.2328 0 45.7407 0 47.5C0 49.2593 1.38227 50.7672 3.2672 50.7672H12.9431C14.7024 50.7672 16.2103 49.2593 16.2103 47.5C16.2103 45.7407 14.7024 44.2328 12.9431 44.2328ZM25.2579 69.6164C24.127 68.3598 21.9907 68.3598 20.7341 69.6164L13.8228 76.5278C12.5661 77.7844 12.5661 79.795 13.8228 81.0516C15.0794 82.3082 17.0899 82.3082 18.3466 81.0516L25.2579 74.1402C26.5145 72.8836 26.5145 70.873 25.2579 69.6164ZM25.2579 20.8598L18.3466 13.9484C17.0899 12.6918 15.0794 12.6918 13.8228 13.9484C12.5661 15.205 12.5661 17.2156 13.8228 18.4722L20.7341 25.3836C21.9907 26.6402 24.0013 26.6402 25.2579 25.3836C26.5145 24.127 26.5145 22.1164 25.2579 20.8598Z" fill="#F7C60B"/>
</g>
<defs>
<clipPath id="clip0_217_295">
<rect width="95" height="95" fill="white"/>
</clipPath>
</defs>
</svg>
