<svg width="26" height="27" viewBox="0 0 26 27" fill="none" xmlns="http://www.w3.org/2000/svg">
<g clip-path="url(#clip0_217_82)">
<path fill-rule="evenodd" clip-rule="evenodd" d="M13 26.5C5.82144 26.5 0 20.6786 0 13.5C0 6.32144 5.82144 0.5 13 0.5C20.1786 0.5 26 6.32144 26 13.5C26 20.6786 20.1786 26.5 13 26.5ZM11.2114 15.7874L19.0127 7.98626C19.2826 7.71623 19.7258 7.71899 19.9931 7.98626L20.8777 8.87087C21.145 9.13814 21.145 9.58413 20.8777 9.8513L11.7154 19.0137C11.5515 19.1776 11.3213 19.2421 11.1056 19.2051C10.958 19.1865 10.8156 19.1217 10.7044 19.0107L5.12313 13.4294C4.85637 13.1626 4.8532 12.7189 5.12313 12.4488L6.00774 11.5642C6.27777 11.2943 6.71824 11.2943 6.98827 11.5642L11.2114 15.7874Z" fill="#FED63C"/>
</g>
<defs>
<clipPath id="clip0_217_82">
<rect width="26" height="26" fill="white" transform="translate(0 0.5)"/>
</clipPath>
</defs>
</svg>
