<svg width="26" height="26" viewBox="0 0 26 26" fill="none" xmlns="http://www.w3.org/2000/svg">
<g clip-path="url(#clip0_217_173)">
<path fill-rule="evenodd" clip-rule="evenodd" d="M13 26C5.82144 26 0 20.1786 0 13C0 5.82144 5.82144 0 13 0C20.1786 0 26 5.82144 26 13C26 20.1786 20.1786 26 13 26Z" fill="#071943"/>
<path fill-rule="evenodd" clip-rule="evenodd" d="M13 26C5.82144 26 0 20.1786 0 13C0 5.82144 5.82144 0 13 0C20.1786 0 26 5.82144 26 13C26 20.1786 20.1786 26 13 26ZM11.2114 15.2874L19.0127 7.48626C19.2826 7.21623 19.7258 7.21899 19.9931 7.48626L20.8777 8.37087C21.145 8.63814 21.145 9.08413 20.8777 9.3513L11.7154 18.5137C11.5515 18.6776 11.3213 18.7421 11.1056 18.7051C10.958 18.6865 10.8156 18.6217 10.7044 18.5107L5.12313 12.9294C4.85637 12.6626 4.8532 12.2189 5.12313 11.9488L6.00774 11.0642C6.27777 10.7943 6.71824 10.7943 6.98827 11.0642L11.2114 15.2874Z" fill="#FED63C"/>
</g>
<defs>
<clipPath id="clip0_217_173">
<rect width="26" height="26" fill="white"/>
</clipPath>
</defs>
</svg>
