<svg width="56" height="56" viewBox="0 0 56 56" fill="none" xmlns="http://www.w3.org/2000/svg">
<path d="M32.8361 49.8061V54.3031C32.8361 54.8121 32.4119 55.1515 31.9876 55.1515H16.7149C16.2058 55.1515 15.8664 54.8121 15.8664 54.3031V49.8061C15.8664 49.297 16.2058 48.9576 16.7149 48.9576H21.2119V42.9334H27.4058V48.9576H31.9028C32.4967 48.9576 32.8361 49.297 32.8361 49.8061ZM33.5997 33.4303H25.1997V41.1515H34.5331L33.5997 33.4303ZM23.5028 41.1515V33.4303H15.1028L14.2543 41.1515H23.5028ZM35.3816 33.4303L36.3149 41.2364H45.9876C46.2422 41.2364 46.4967 41.1515 46.6664 40.897C46.8361 40.7273 46.921 40.4727 46.8361 40.2182L45.3088 33.4303H35.3816ZM31.5634 15.7818H25.1997V23.5031H32.4967L31.5634 15.7818ZM23.5028 25.2H16.121L15.3573 31.7334H23.5028V25.2ZM14.424 25.2H5.3452L3.90277 31.7334H13.6603L14.424 25.2ZM16.2907 23.5031H23.5028V15.7818H17.224L16.2907 23.5031ZM13.4058 33.4303H3.47853L1.95126 40.2182C1.86641 40.4727 1.95126 40.7273 2.12095 40.897C2.29065 41.0667 2.54519 41.2364 2.79974 41.2364H12.4725L13.4058 33.4303ZM14.5937 23.5031L15.527 15.697H8.1452C7.72095 15.697 7.38156 15.9515 7.29671 16.3758L5.68459 23.5031H14.5937ZM43.4422 25.2H34.3634L35.127 31.7334H44.8846L43.4422 25.2ZM25.1997 25.2V31.7334H33.43L32.6664 25.2H25.1997ZM34.1937 23.5031H43.1028L41.4907 16.3758C41.4058 15.9515 41.0664 15.697 40.6422 15.697H33.2603L34.1937 23.5031Z" fill="#FED63C"/>
<path d="M48.703 18.1576C48.703 21.1273 47.4303 23.9273 45.3091 25.9637L44.8 23.5879L43.103 16.0364C42.8485 14.9334 41.8303 14.0849 40.6424 14.0849H28C29.6121 10.097 33.5152 7.38184 37.9273 7.38184C43.8667 7.38184 48.703 12.2182 48.703 18.1576ZM36.9091 3.9879V1.697C36.9091 1.1879 37.2485 0.848511 37.7576 0.848511C38.1818 0.848511 38.6061 1.1879 38.6061 1.697V3.9879C38.6061 4.497 38.1818 4.83639 37.7576 4.83639C37.3333 4.83639 36.9091 4.41215 36.9091 3.9879ZM42.5091 4.75154L43.3576 2.63033C43.5273 2.20609 44.0364 1.95154 44.4606 2.20609C44.8848 2.37578 45.1394 2.88487 44.8848 3.30912L44.0364 5.43033C43.8667 5.85457 43.3576 6.10912 42.9333 5.85457C42.5091 5.68487 42.3394 5.17578 42.5091 4.75154ZM53.5394 12.8121L51.4182 13.6606C50.9091 13.8303 50.4848 13.5758 50.3152 13.2364C50.1455 12.8121 50.3152 12.3031 50.7394 12.1334L52.8606 11.2849C53.2848 11.1152 53.7939 11.2849 53.9636 11.7091C54.1333 12.1334 53.9636 12.6425 53.5394 12.8121ZM50.1455 7.21215L48.5333 8.82427C48.1939 9.16366 47.6848 9.16366 47.3455 8.82427C47.0061 8.48487 47.0061 7.97578 47.3455 7.63639L48.9576 6.02427C49.297 5.68487 49.8061 5.68487 50.1455 6.02427C50.4848 6.27881 50.4848 6.87275 50.1455 7.21215ZM30.6303 3.30912C30.4606 2.88487 30.6303 2.37578 31.1394 2.20609C31.5636 2.03639 32.0727 2.20609 32.2424 2.63033L33.0909 4.75154C33.2606 5.17578 33.0909 5.68487 32.6667 5.85457C32.2424 6.02427 31.7333 5.85457 31.5636 5.43033L30.6303 3.30912Z" fill="#FED63C"/>
</svg>
