<svg width="18" height="25" viewBox="0 0 18 25" fill="none" xmlns="http://www.w3.org/2000/svg">
<path d="M10.6458 0.000429448C10.5822 0.00339089 10.5201 0.0209883 10.4644 0.0518534C10.4087 0.0827185 10.3608 0.12602 10.3246 0.17839L0.741493 13.927C0.697707 13.9895 0.67191 14.0629 0.666911 14.1391C0.661913 14.2152 0.677903 14.2913 0.713143 14.359C0.748383 14.4268 0.801521 14.4835 0.866776 14.5231C0.93203 14.5627 1.0069 14.5837 1.08324 14.5837H7.71344L6.91813 24.5526C6.88663 24.9731 7.42996 25.1668 7.67407 24.8235L17.2587 11.0749C17.3025 11.0124 17.3283 10.939 17.3333 10.8629C17.3383 10.7867 17.3223 10.7106 17.2871 10.6429C17.2518 10.5752 17.1987 10.5184 17.1334 10.4788C17.0682 10.4392 16.9933 10.4182 16.917 10.4182H10.2868L11.0821 0.449267C11.0864 0.39037 11.0781 0.331231 11.0579 0.275758C11.0376 0.220285 11.0059 0.169741 10.9646 0.127466C10.9234 0.0851906 10.8736 0.0521475 10.8187 0.0305201C10.7637 0.00889264 10.7048 -0.00240158 10.6458 0.000429448Z" fill="#FED63C"/>
</svg>
