<svg width="95" height="95" viewBox="0 0 95 95" fill="none" xmlns="http://www.w3.org/2000/svg">
<mask id="mask0_217_304" style="mask-type:luminance" maskUnits="userSpaceOnUse" x="0" y="-1" width="95" height="96">
<path d="M93.4164 93.4157V1.58263H1.58333V93.4157H93.4164Z" fill="white" stroke="white" stroke-width="3.16667"/>
</mask>
<g mask="url(#mask0_217_304)">
<path d="M16.5449 18.3433C18.1141 16.5473 19.8256 14.8808 21.6627 13.36" stroke="#F7C60B" stroke-width="5.06667" stroke-miterlimit="10" stroke-linecap="round" stroke-linejoin="round"/>
<path d="M6.75098 37.5039C7.84214 32.7607 9.7114 28.231 12.2829 24.0987" stroke="#F7C60B" stroke-width="5.06667" stroke-miterlimit="10" stroke-linecap="round" stroke-linejoin="round"/>
<path d="M21.3876 81.4082C11.7507 73.2987 5.62207 61.118 5.62207 47.4987C5.62207 46.9814 5.63098 46.4661 5.64842 45.9533" stroke="#F7C60B" stroke-width="5.06667" stroke-miterlimit="10" stroke-linecap="round" stroke-linejoin="round"/>
<path d="M70.9325 86.1787C64.6174 89.7008 57.349 91.7065 49.6145 91.7065C41.9064 91.7065 34.6614 89.7145 28.3613 86.2146" stroke="#F7C60B" stroke-width="5.06667" stroke-miterlimit="10" stroke-linecap="round" stroke-linejoin="round"/>
<path d="M86.9186 24.0535C91.1575 30.8495 93.6081 38.8867 93.6081 47.499C93.6081 61.0984 87.4976 73.2636 77.8848 81.373" stroke="#F7C60B" stroke-width="5.06667" stroke-miterlimit="10" stroke-linecap="round" stroke-linejoin="round"/>
<path d="M77.1768 13.0399C78.8047 14.3567 80.3374 15.7871 81.7633 17.3203" stroke="#F7C60B" stroke-width="5.06667" stroke-miterlimit="10" stroke-linecap="round" stroke-linejoin="round"/>
<path d="M28.6367 8.63135C34.8722 5.22564 42.0189 3.29095 49.6151 3.29095C57.0164 3.29095 63.9909 5.12768 70.1117 8.37214" stroke="#F7C60B" stroke-width="5.06667" stroke-miterlimit="10" stroke-linecap="round" stroke-linejoin="round"/>
<path d="M53.2988 18.7441C58.2538 15.6605 63.7122 13.2369 69.5781 11.6192" stroke="#F7C60B" stroke-width="5.06667" stroke-miterlimit="10" stroke-linecap="round" stroke-linejoin="round"/>
<path d="M35.2725 35.791C38.4535 31.2743 42.2183 27.1985 46.4687 23.6695" stroke="#F7C60B" stroke-width="5.06667" stroke-miterlimit="10" stroke-linecap="round" stroke-linejoin="round"/>
<path d="M24.2709 79.5649C22.6873 66.6177 25.1911 53.98 30.8467 43.0741" stroke="#F7C60B" stroke-width="5.06667" stroke-miterlimit="10" stroke-linecap="round" stroke-linejoin="round"/>
<path d="M45.9303 18.7441C40.8077 15.5563 35.1473 13.0738 29.0547 11.4577" stroke="#F7C60B" stroke-width="5.06667" stroke-miterlimit="10" stroke-linecap="round" stroke-linejoin="round"/>
<path d="M70.0032 46.437C66.0897 37.6518 60.1936 29.8364 52.7617 23.6695" stroke="#F7C60B" stroke-width="5.06667" stroke-miterlimit="10" stroke-linecap="round" stroke-linejoin="round"/>
<path d="M74.7543 62.77C74.3362 59.9442 73.7252 57.1504 72.9258 54.408" stroke="#F7C60B" stroke-width="5.06667" stroke-miterlimit="10" stroke-linecap="round" stroke-linejoin="round"/>
<path d="M74.9336 79.7749C75.3022 76.8429 75.4645 73.8886 75.4194 70.9338" stroke="#F7C60B" stroke-width="5.06667" stroke-miterlimit="10" stroke-linecap="round" stroke-linejoin="round"/>
<path d="M28.9205 38.547C22.583 38.5147 16.1499 39.1947 9.7207 40.6455" stroke="#F7C60B" stroke-width="5.06667" stroke-miterlimit="10" stroke-linecap="round" stroke-linejoin="round"/>
<path d="M67.9365 48.2881C58.5014 43.3418 48.1353 40.1489 37.3516 39.0111" stroke="#F7C60B" stroke-width="5.06667" stroke-miterlimit="10" stroke-linecap="round" stroke-linejoin="round"/>
<path d="M90.057 64.9263C85.5953 60.2682 80.6223 56.1284 75.2324 52.5854" stroke="#F7C60B" stroke-width="5.06667" stroke-miterlimit="10" stroke-linecap="round" stroke-linejoin="round"/>
<path d="M73.7412 46.6816C77.9567 39.8959 81.2008 32.5531 83.379 24.8673" stroke="#F7C60B" stroke-width="5.06667" stroke-miterlimit="10" stroke-linecap="round" stroke-linejoin="round"/>
<path d="M28.9209 82.4937C44.8256 77.0085 58.7436 66.9092 68.9306 53.6347" stroke="#F7C60B" stroke-width="5.06667" stroke-miterlimit="10" stroke-linecap="round" stroke-linejoin="round"/>
<path d="M49.6154 25.0825C47.2825 25.0825 45.3848 23.1755 45.3848 20.8311C45.3848 18.4869 47.2825 16.5799 49.6154 16.5799C51.9483 16.5799 53.8461 18.4869 53.8461 20.8311C53.8461 23.1755 51.9483 25.0825 49.6154 25.0825Z" stroke="#F7C60B" stroke-width="5.06667" stroke-miterlimit="10" stroke-linecap="round" stroke-linejoin="round"/>
<path d="M33.1515 43.7612C30.8187 43.7612 28.9209 41.854 28.9209 39.5098C28.9209 37.1656 30.8187 35.2584 33.1515 35.2584C35.4844 35.2584 37.3822 37.1656 37.3822 39.5098C37.3822 41.854 35.4844 43.7612 33.1515 43.7612Z" stroke="#F7C60B" stroke-width="5.06667" stroke-miterlimit="10" stroke-linecap="round" stroke-linejoin="round"/>
<path d="M71.6281 54.6138C69.2952 54.6138 67.3975 52.7065 67.3975 50.3623C67.3975 48.0182 69.2952 46.1109 71.6281 46.1109C73.961 46.1109 75.8587 48.0182 75.8587 50.3623C75.8587 52.7065 73.961 54.6138 71.6281 54.6138Z" stroke="#F7C60B" stroke-width="5.06667" stroke-miterlimit="10" stroke-linecap="round" stroke-linejoin="round"/>
<path d="M24.9054 88.0181C22.5726 88.0181 20.6748 86.111 20.6748 83.7666C20.6748 81.4225 22.5726 79.5154 24.9054 79.5154C27.2383 79.5154 29.1363 81.4225 29.1363 83.7666C29.1363 86.111 27.2383 88.0181 24.9054 88.0181Z" stroke="#F7C60B" stroke-width="5.06667" stroke-miterlimit="10" stroke-linecap="round" stroke-linejoin="round"/>
<path d="M74.5695 88.2603C72.2366 88.2603 70.3389 86.353 70.3389 84.0088C70.3389 81.6646 72.2366 79.7574 74.5695 79.7574C76.9024 79.7574 78.8003 81.6646 78.8003 84.0088C78.8003 86.353 76.9024 88.2603 74.5695 88.2603Z" stroke="#F7C60B" stroke-width="5.06667" stroke-miterlimit="10" stroke-linecap="round" stroke-linejoin="round"/>
<path d="M84.434 24.8672C82.1011 24.8672 80.2031 22.96 80.2031 20.6158C80.2031 18.2716 82.1011 16.3643 84.434 16.3643C86.7668 16.3643 88.6646 18.2716 88.6646 20.6158C88.6646 22.96 86.7668 24.8672 84.434 24.8672Z" stroke="#F7C60B" stroke-width="5.06667" stroke-miterlimit="10" stroke-linecap="round" stroke-linejoin="round"/>
<path d="M73.6935 14.8838C71.3607 14.8838 69.4629 12.9767 69.4629 10.6324C69.4629 8.28817 71.3607 6.38113 73.6935 6.38113C76.0264 6.38113 77.9244 8.28817 77.9244 10.6324C77.9244 12.9767 76.0264 14.8838 73.6935 14.8838Z" stroke="#F7C60B" stroke-width="5.06667" stroke-miterlimit="10" stroke-linecap="round" stroke-linejoin="round"/>
<path d="M24.9054 14.8838C22.5726 14.8838 20.6748 12.9767 20.6748 10.6324C20.6748 8.28817 22.5726 6.38113 24.9054 6.38113C27.2383 6.38113 29.1363 8.28817 29.1363 10.6324C29.1363 12.9767 27.2383 14.8838 24.9054 14.8838Z" stroke="#F7C60B" stroke-width="5.06667" stroke-miterlimit="10" stroke-linecap="round" stroke-linejoin="round"/>
<path d="M5.62224 45.9531C3.28937 45.9531 1.3916 44.0461 1.3916 41.7017C1.3916 39.3575 3.28937 37.4505 5.62224 37.4505C7.95512 37.4505 9.85289 39.3575 9.85289 41.7017C9.85289 44.0461 7.95512 45.9531 5.62224 45.9531Z" stroke="#F7C60B" stroke-width="5.06667" stroke-miterlimit="10" stroke-linecap="round" stroke-linejoin="round"/>
</g>
</svg>
